<svg width="24" height="24" viewBox="0 0 24 24" fill="none" xmlns="http://www.w3.org/2000/svg">
<mask id="mask0_1_124" style="mask-type:alpha" maskUnits="userSpaceOnUse" x="0" y="0" width="24" height="24">
<rect width="24" height="24" fill="#D9D9D9"/>
</mask>
<g mask="url(#mask0_1_124)">
<path d="M9.07599 16.2504L12.001 14.4754L14.926 16.2504L14.151 12.9254L16.751 10.6754L13.326 10.4004L12.001 7.25044L10.676 10.4004L7.25099 10.6754L9.85099 12.9254L9.07599 16.2504ZM12.001 23.3004L8.65099 20.0004H4.00099V15.3504L0.700989 12.0004L4.00099 8.65044V4.00044H8.65099L12.001 0.700439L15.351 4.00044H20.001V8.65044L23.301 12.0004L20.001 15.3504V20.0004H15.351L12.001 23.3004ZM12.001 20.5004L14.501 18.0004H18.001V14.5004L20.501 12.0004L18.001 9.50044V6.00044H14.501L12.001 3.50044L9.50099 6.00044H6.00099V9.50044L3.50099 12.0004L6.00099 14.5004V18.0004H9.50099L12.001 20.5004Z" fill="#BB5302"/>
</g>
</svg>
