<svg width="301" height="259" viewBox="0 0 301 259" fill="none" xmlns="http://www.w3.org/2000/svg">
<path d="M287.464 41.8756L285.666 38.9124C270.508 13.9332 243.101 -1.12465 214.206 0.70264C210.491 0.937828 206.793 1.44073 203.145 2.22135C176.873 7.84502 154.014 27.7117 144.539 53.1554C138.966 68.119 137.409 85.3486 126.834 97.2256C113.072 112.684 89.7064 113.169 69.1633 112.529C48.6202 111.888 25.239 112.434 11.5439 127.954C2.96621 137.673 0.240694 151.494 0.93208 164.51C2.76354 198.971 26.7761 229.784 57.3146 245.1C87.8532 260.415 123.809 261.787 157.231 255.05C204.052 245.612 248.578 219.692 275.341 179.659C302.104 139.626 308.877 85.0843 287.464 41.8756Z" fill="#F5F5F5"/>
</svg>
