<svg width="28" height="28" viewBox="0 0 28 28" fill="none" xmlns="http://www.w3.org/2000/svg">
<path d="M14 2.33337C7.56701 2.33337 2.33334 7.56704 2.33334 14C2.33334 20.433 7.56701 25.6667 14 25.6667C20.433 25.6667 25.6667 20.433 25.6667 14C25.6667 7.56704 20.433 2.33337 14 2.33337ZM14 23.3334C8.85384 23.3334 4.66668 19.1462 4.66668 14C4.66668 8.85387 8.85384 4.66671 14 4.66671C19.1462 4.66671 23.3333 8.85387 23.3333 14C23.3333 19.1462 19.1462 23.3334 14 23.3334Z" fill="white"/>
<path d="M15.1667 8.16663H12.8333V14.483L16.6752 18.3248L18.3248 16.6751L15.1667 13.517V8.16663Z" fill="white"/>
</svg>
