<svg width="199" height="205" viewBox="0 0 199 205" fill="none" xmlns="http://www.w3.org/2000/svg">
<path d="M122.452 59.1254C121.656 58.1797 120.619 57.324 120.367 56.1139C120.125 54.9504 120.681 53.7912 120.93 52.6303C121.627 49.3943 119.598 45.7973 116.469 44.7198C114.67 44.1001 112.361 44.0476 111.447 42.3787C110.549 40.7399 111.688 38.7975 112.357 37.052C113.465 34.1597 113.172 30.7861 111.643 28.0965C111.427 27.4793 111.173 26.878 110.878 26.2975C108.523 21.6597 103.735 18.5772 98.8276 18.5405C98.0904 14.7358 94.9337 11.7968 91.395 11.0295C91.3959 9.67842 91.1106 8.31984 90.4968 7.12639C88.7346 3.70115 84.9941 1.62115 81.1919 1.00733C75.6875 0.119115 69.8019 2.06984 65.918 6.06887C63.8188 8.22977 62.1183 11.0495 59.2727 12.0403C56.7715 12.911 54.0043 12.1245 51.3772 12.4657C47.8561 12.9218 44.8387 15.4247 43.033 18.4821C41.2274 21.5387 40.4835 25.1041 40.0657 28.6302C39.6829 31.8662 39.4302 35.4173 37.185 37.7792C34.9958 40.0819 31.5372 40.5698 28.815 42.2078C23.6926 45.2902 22.0329 52.9255 25.4123 57.8569C26.4898 59.429 28.0369 60.8702 28.162 62.7725C28.2762 64.5089 27.1537 66.0552 26.6282 67.714C25.2747 71.9849 28.7716 77.0598 33.2444 77.3167C35.5029 77.4459 37.9223 76.5661 39.9464 77.5752C41.9572 78.5785 42.7053 81.0029 43.9913 82.8452C46.5217 86.4698 51.8134 87.8359 55.7815 85.8902C57.4429 85.0754 59.0116 83.7309 60.8573 83.8552C62.6996 83.9795 64.1491 85.5524 65.9622 85.9027C68.3349 86.3614 70.5884 84.6142 71.9995 82.6518C73.4098 80.6894 74.3931 78.3775 76.1996 76.7712C78.5639 74.6679 81.8866 74.1483 84.8781 73.1183C89.1707 71.6405 92.988 68.8949 95.8628 65.3846L95.57 82.048C98.042 82.048 99.4865 81.1831 100.407 79.9054C100.923 80.2482 101.471 80.5426 102.063 80.7386C104.98 81.7027 108.455 80.6143 110.302 78.1582C111.265 76.8771 111.862 75.2358 113.227 74.396C114.417 73.6637 115.907 73.7213 117.282 73.4711C120.304 72.9223 122.959 70.6755 123.999 67.7865C125.04 64.8984 124.429 61.4748 122.452 59.1254Z" fill="#263238"/>
<path d="M66.4993 20.1835C63.0465 22.3594 55.2078 31.9387 55.0543 34.761L55.86 92.0826C55.7315 96.3902 54.9951 100.097 57.5138 103.594C64.501 111.944 80.6723 112.968 84.3694 106.091C84.6538 105.563 84.8615 105.098 84.9615 104.708C85.08 104.144 85.2426 103.775 85.286 103.294C86.2884 98.4411 86.1283 93.7656 86.1283 93.7656C86.6104 88.162 86.7796 85.8627 86.7796 85.9152C86.7796 85.9152 98.7542 84.8285 102.35 69.5771C104.139 61.9919 104.687 49.3785 104.802 39.0436C104.821 37.2997 104.374 35.2706 103.572 33.1263C99.127 21.2318 88.9072 15.4581 76.619 16.5139C73.5416 16.7783 68.8311 18.156 66.4993 20.1835Z" fill="#FFBF9D"/>
<path d="M87.1783 60.6008C87.1775 60.4791 88.5185 60.349 90.6836 60.233C91.2315 60.2172 91.7545 60.1471 91.8737 59.7827C92.0313 59.399 91.847 58.796 91.6302 58.1439C91.2165 56.7894 90.7837 55.37 90.3292 53.883C88.5336 47.8206 87.2759 42.8516 87.5202 42.7824C87.7654 42.7124 89.4201 47.5687 91.2157 53.6311C91.6452 55.1248 92.0572 56.5493 92.4475 57.912C92.6076 58.545 92.9095 59.2731 92.5718 60.0671C92.395 60.4632 91.9738 60.7276 91.6185 60.796C91.2616 60.8761 90.9555 60.8594 90.6853 60.8552C88.5177 60.8127 87.1775 60.7226 87.1783 60.6008Z" fill="#263238"/>
<path d="M86.7796 85.9152C86.7796 85.9152 76.3471 85.8143 66.5193 78.8679C66.5193 78.8679 70.9236 89.9376 86.4777 89.639L86.7796 85.9152Z" fill="#FF9A6C"/>
<path d="M85.8964 65.6674C85.2059 64.5974 83.9049 63.9418 82.5621 63.9869C81.6305 64.0177 80.6631 64.3939 80.0459 65.1053C79.4288 65.8158 79.2311 66.8758 79.689 67.6314C80.2036 68.4821 81.3912 68.7582 82.4287 68.5447C83.467 68.3312 84.3911 67.7274 85.2718 67.1219C85.5153 66.9542 85.7647 66.7791 85.9265 66.5364C86.0891 66.2945 86.1441 65.9659 85.9823 65.7441" fill="#FF9A6C"/>
<path d="M80.8007 61.6091C81.1485 61.615 80.9809 63.9268 82.839 65.7149C84.6913 67.508 87.1758 67.4313 87.17 67.7557C87.1917 67.9033 86.5878 68.1644 85.5453 68.1151C84.522 68.0743 83.0567 67.6364 81.9208 66.5422C80.7882 65.4463 80.3687 64.0652 80.3604 63.1111C80.3437 62.1379 80.6439 61.5841 80.8007 61.6091Z" fill="#263238"/>
<path d="M80.4129 38.4548C80.1602 39.0186 78.0535 38.5857 75.5332 38.7017C73.0087 38.7667 70.9395 39.3488 70.6468 38.8051C70.5175 38.5457 70.9087 38.0269 71.7652 37.5265C72.6142 37.027 73.9428 36.5908 75.4548 36.5349C76.9677 36.4824 78.3229 36.8218 79.2061 37.2605C80.096 37.6975 80.5239 38.1862 80.4129 38.4548Z" fill="#263238"/>
<path d="M101.649 38.4506C101.166 38.901 99.4531 38.2696 97.3506 38.0895C95.2531 37.8485 93.4391 38.1262 93.0672 37.5899C92.9054 37.3306 93.2223 36.8677 94.0346 36.4674C94.8361 36.0679 96.1471 35.7902 97.5908 35.9344C99.0336 36.0804 100.255 36.6117 100.949 37.1613C101.657 37.7125 101.863 38.2288 101.649 38.4506Z" fill="#263238"/>
<path d="M58.1568 54.6886C58.2394 53.5393 57.1118 50.7312 55.99 50.4693C52.9943 49.7721 47.5125 49.6103 46.8911 57.304C46.0413 67.8216 56.7757 66.5055 56.8191 66.2053C56.8516 65.9709 57.8716 58.6584 58.1568 54.6886Z" fill="#FFBF9D"/>
<path d="M53.9267 61.9619C53.8833 61.9243 53.7332 62.0753 53.4122 62.1921C53.0986 62.3055 52.5715 62.3597 52.0402 62.1095C50.9618 61.6124 50.1687 59.7726 50.2713 57.8728C50.3213 56.9129 50.5957 56.018 50.9961 55.2907C51.3797 54.5476 51.9201 54.0497 52.4881 53.9963C53.0544 53.9121 53.4238 54.2791 53.5289 54.5851C53.6465 54.8912 53.5623 55.0956 53.6165 55.1181C53.6432 55.1473 53.8558 54.9605 53.8066 54.5193C53.7799 54.3066 53.6774 54.0481 53.4463 53.8262C53.2103 53.6002 52.8484 53.4659 52.4547 53.4768C51.6391 53.4676 50.8493 54.1548 50.4098 54.9529C49.9252 55.7519 49.5941 56.7561 49.5374 57.8336C49.4331 59.9586 50.358 62.0294 51.8434 62.5915C52.5673 62.8434 53.2028 62.6708 53.5414 62.4481C53.8875 62.2146 53.9617 61.9836 53.9267 61.9619Z" fill="#FF9A6C"/>
<path d="M53.9344 34.7613C53.7422 35.2545 53.9344 34.2322 53.9344 34.7613V34.7613Z" fill="#455A64"/>
<path d="M97.0479 20C93.1339 17.3629 89.918 14.3171 80.3595 14.303C72.9786 14.2921 67.5743 18.5856 61.7597 23.6596C54.2904 30.1765 49.5574 40.795 52.7049 50.1942L55.8424 51.421L58.824 44.2119C63.9614 33.0363 74.6458 23.6371 86.1758 23.085C87.3326 23.0299 88.411 23.0399 89.3642 23.135C96.9895 23.8998 104.803 37.7809 104.803 37.7809C104.803 37.7809 106.218 26.1775 97.0479 20Z" fill="#E27900"/>
<path d="M55.86 51.3701C56.0284 53.5527 56.3629 55.5234 56.5313 57.7052C56.6022 58.6251 56.8357 59.7551 57.7248 60.0028C58.3595 60.1796 59.0383 59.7585 59.3728 59.1914C59.708 58.6242 59.7798 57.9445 59.844 57.289C60.4928 50.6737 61.0449 45.6313 61.693 39.0161C59.7848 41.6665 57.8299 46.236 55.86 51.3701Z" fill="#263238"/>
<path d="M54.1177 67.95C54.1377 67.9484 54.1795 68.161 54.041 68.5072C53.9101 68.8516 53.5489 69.3003 52.9443 69.5855C52.3455 69.8774 51.4923 69.9466 50.6625 69.6464C49.841 69.3587 49.012 68.6773 48.675 67.6881C48.3389 66.7115 48.4941 65.6682 48.9428 64.9076C49.3948 64.132 50.1204 63.69 50.7434 63.5056C51.3747 63.3122 51.9193 63.3497 52.2704 63.4256C52.624 63.5048 52.7975 63.6107 52.7883 63.6332C52.7808 63.72 51.9935 63.3797 50.8418 63.7967C50.2838 64.001 49.6642 64.4222 49.2905 65.1053C48.9152 65.7791 48.7926 66.7015 49.0845 67.5455C49.3706 68.392 50.0787 68.995 50.8009 69.2711C51.529 69.5563 52.2779 69.5271 52.8209 69.3036C53.3738 69.0843 53.7257 68.7206 53.8884 68.4329C54.0602 68.1443 54.0794 67.9442 54.1177 67.95Z" fill="#E0E0E0"/>
<path d="M76.2905 25.7171C76.2905 25.7171 84.6046 28.0114 87.4177 27.1416C90.5844 26.1616 91.9647 23.733 91.9647 23.733C91.9647 23.733 85.507 20.8832 76.2905 25.7171Z" fill="#263238"/>
<path d="M122.437 47.07C122.406 47.0383 122.826 46.7547 123.316 46.0075C123.798 45.2777 124.334 44.015 124.201 42.3962C124.092 40.795 123.124 38.9301 121.364 37.6249C119.615 36.3039 117.109 35.6775 114.498 35.8568L114.135 35.8819L114.297 35.5533C115.141 33.8386 115.931 31.932 116.25 29.8646C116.499 28.2174 116.415 26.5511 115.927 25.0649C115.444 23.5762 114.519 22.3235 113.428 21.3861C111.213 19.4946 108.55 18.8024 106.375 18.6164C104.174 18.4279 102.375 18.6306 101.145 18.7665C100.567 18.8391 100.097 18.8983 99.7259 18.945C99.4014 18.9867 99.2288 19.0017 99.2263 18.9875C99.2238 18.9725 99.3906 18.9292 99.7108 18.8591C100.032 18.7907 100.506 18.6973 101.123 18.5997C102.351 18.4129 104.157 18.1594 106.4 18.3112C108.615 18.4621 111.368 19.1327 113.688 21.0834C114.83 22.0492 115.817 23.366 116.331 24.9323C116.85 26.4927 116.938 28.2266 116.679 29.9313C116.349 32.068 115.534 34.012 114.674 35.7418L114.473 35.4382C117.161 35.2647 119.766 35.9311 121.583 37.3364C123.406 38.7208 124.391 40.694 124.469 42.3779C124.569 44.0742 123.969 45.3653 123.435 46.0909C122.892 46.8323 122.437 47.07 122.437 47.07Z" fill="#263238"/>
<path d="M36.0975 64.8067C36.0966 64.8142 36.0199 64.8167 35.869 64.8133C35.6938 64.8067 35.4736 64.7983 35.2009 64.7883C34.6138 64.7575 33.7473 64.7132 32.6355 64.5823C31.528 64.4447 30.1602 64.2304 28.6574 63.6707C27.177 63.1036 25.509 62.1679 24.288 60.5157C23.0579 58.8611 22.6017 56.5542 22.6951 54.2024C22.7343 53.0189 22.8753 51.8054 23.0496 50.5661C23.2255 49.3309 23.3982 48.0358 23.8402 46.7614C24.2747 45.4954 25.027 44.2411 26.2129 43.4046C27.4122 42.5247 28.9801 42.4705 30.3904 42.493C31.8049 42.508 33.3236 42.5497 34.4795 41.7124C35.6229 40.88 36.2076 39.4064 36.3418 37.9502C36.4845 36.4657 36.2509 34.9745 36.1751 33.4825C36.0875 31.9879 36.1659 30.5084 36.3577 29.0739C36.7372 26.2008 37.6404 23.5095 38.9122 21.1709C40.1799 18.8307 41.8204 16.8433 43.641 15.3296C45.4583 13.8034 47.439 12.7601 49.3322 12.0904C53.1403 10.7176 56.5196 10.8719 58.6989 11.2931C60.9015 11.7434 62.0015 12.3506 62.0015 12.3506C61.999 12.3572 61.9231 12.3372 61.7797 12.2913C61.6137 12.2346 61.4061 12.1646 61.1483 12.077C60.5946 11.8902 59.7622 11.6492 58.6688 11.459C56.5021 11.0929 53.1703 10.9903 49.4365 12.3789C47.58 13.0561 45.6426 14.0978 43.872 15.6048C42.0973 17.101 40.4985 19.0584 39.2633 21.3611C38.0248 23.6613 37.1458 26.3084 36.7789 29.1306C36.5929 30.5401 36.5178 31.9921 36.6054 33.4591C36.6788 34.9236 36.9206 36.434 36.773 37.9919C36.6287 39.5281 36.0208 41.1194 34.7322 42.0626C34.0892 42.5163 33.3286 42.7657 32.583 42.8499C31.8357 42.9417 31.101 42.925 30.3854 42.9183C28.9693 42.8933 27.534 42.9517 26.4489 43.7457C25.3589 44.5079 24.6367 45.683 24.2172 46.894C23.7868 48.115 23.6083 49.3868 23.4265 50.6203C23.2455 51.8538 23.0996 53.0531 23.0537 54.2148C22.9478 56.5267 23.3748 58.7418 24.5357 60.3364C25.6892 61.9319 27.2996 62.8684 28.7441 63.4447C30.2086 64.0152 31.5588 64.2529 32.6564 64.4155C33.7581 64.5706 34.6213 64.6432 35.2059 64.7016C35.4778 64.7291 35.6963 64.7516 35.8706 64.77C36.0216 64.7866 36.0983 64.7992 36.0975 64.8067Z" fill="#263238"/>
<path d="M62.813 23.6646C62.8355 23.6846 62.5928 24.019 62.1375 24.6062C61.9056 24.8964 61.6271 25.255 61.326 25.6895C61.0224 26.1207 60.6538 26.5944 60.3018 27.1574C59.5563 28.2541 58.7531 29.6152 57.9475 31.1698C57.1635 32.7352 56.3904 34.5016 55.7332 36.4123C55.0927 38.3296 54.6315 40.202 54.3012 41.9217C53.9951 43.6464 53.805 45.2152 53.7291 46.5387C53.6657 47.1992 53.6699 47.7997 53.649 48.3268C53.624 48.8539 53.6274 49.3084 53.634 49.6796C53.639 50.4227 53.6273 50.8363 53.5973 50.838C53.5673 50.8405 53.5223 50.4301 53.4647 49.6854C53.4314 49.3134 53.4038 48.8572 53.4055 48.326C53.403 47.7956 53.378 47.1901 53.4222 46.522C53.4589 45.1851 53.619 43.5964 53.9067 41.85C54.2187 40.1077 54.6732 38.2104 55.3212 36.2713C55.9859 34.3381 56.7799 32.5567 57.5913 30.9846C58.4253 29.4234 59.2644 28.0656 60.0483 26.9823C60.4195 26.426 60.8081 25.9606 61.1325 25.5411C61.4536 25.1183 61.7538 24.7738 62.0065 24.4978C62.5053 23.9423 62.7905 23.6454 62.813 23.6646Z" fill="#263238"/>
<path d="M71.2239 19.6789C71.2431 19.7023 70.8811 20.0467 70.2123 20.6472C69.8745 20.9432 69.4658 21.311 69.0146 21.7622C68.5601 22.2101 68.0213 22.6971 67.4801 23.291C66.3575 24.4369 65.1057 25.883 63.8055 27.5569C62.5286 29.2482 61.2176 31.1773 60.0058 33.3023C58.8115 35.4382 57.8365 37.5582 57.0476 39.5248C56.2853 41.5022 55.694 43.3212 55.2928 44.8749C55.0635 45.6447 54.925 46.3577 54.7766 46.9782C54.6231 47.5979 54.5197 48.1375 54.4405 48.5795C54.2712 49.4619 54.1636 49.9498 54.1344 49.9456C54.1044 49.9414 54.1561 49.446 54.2745 48.5512C54.3287 48.1033 54.408 47.5562 54.5397 46.929C54.6665 46.301 54.7849 45.5788 54.9959 44.799C55.3621 43.2252 55.9275 41.3829 56.6756 39.3805C57.4504 37.3889 58.4237 35.2438 59.6288 33.0888C60.8514 30.9446 62.185 29.0039 63.4902 27.3125C64.818 25.6378 66.104 24.2025 67.2624 23.0766C67.8212 22.4928 68.3783 22.0183 68.8503 21.5854C69.3199 21.1484 69.7469 20.7981 70.103 20.5204C70.8069 19.9558 71.2047 19.6556 71.2239 19.6789Z" fill="#263238"/>
<path d="M41.7378 69.2244C41.742 69.2302 41.6653 69.2852 41.5101 69.3862C41.3592 69.4937 41.1223 69.6347 40.7946 69.7881C40.1449 70.095 39.1049 70.4512 37.7188 70.4503C36.351 70.447 34.6138 70.0959 32.9875 68.9633C31.3612 67.8483 30.0085 65.8717 29.473 63.4506C29.2095 62.2404 29.1436 60.9244 29.3479 59.5842C29.5623 58.2481 30.0268 56.8953 30.7549 55.6343C31.478 54.3725 32.4329 53.184 33.5938 52.1582C34.7431 51.1141 36.13 50.2934 37.5437 49.5244C38.9456 48.7413 40.4051 47.9415 41.5293 46.7247C42.6736 45.5279 43.4242 43.9592 43.8879 42.297C44.3408 40.6232 44.5367 38.8517 44.6276 37.0495C44.7227 35.2489 44.711 33.399 44.897 31.5326C45.0697 29.6694 45.4158 27.8146 46.1447 26.1132C46.8461 24.4002 48.0687 22.9282 49.5599 21.9332C51.0486 20.9241 52.7208 20.3361 54.3471 19.8666C55.98 19.402 57.5947 19.0417 59.1259 18.5664C60.6538 18.0935 62.11 17.4963 63.3218 16.6106C63.6237 16.3896 63.9256 16.1711 64.1774 15.9009C64.4427 15.6457 64.712 15.3972 64.9356 15.1103C65.3934 14.5457 65.7787 13.9335 66.1423 13.3188C66.8663 12.092 67.5276 10.8394 68.4634 9.84189C69.3925 8.84776 70.4958 8.11468 71.6309 7.61678C73.9152 6.63433 76.2996 6.61014 78.1636 7.2248C80.0451 7.82611 81.4154 8.91699 82.3328 9.9303C83.2594 10.9544 83.7447 11.9269 84.0191 12.5908C84.2952 13.2588 84.3536 13.6374 84.3536 13.6374C84.3252 13.6466 84.2385 13.2755 83.9391 12.625C83.6422 11.9786 83.1384 11.0337 82.2085 10.0445C81.2886 9.06543 79.93 8.01877 78.0919 7.45665C76.2746 6.88036 73.9611 6.92873 71.7543 7.89784C70.6585 8.38907 69.5976 9.1063 68.7102 10.0687C67.8187 11.0295 67.1757 12.258 66.4526 13.5006C66.089 14.1228 65.6978 14.7525 65.2241 15.3429C64.9923 15.644 64.7129 15.9059 64.4368 16.1736C64.1733 16.4572 63.8605 16.6865 63.5469 16.9184C62.2884 17.8458 60.7914 18.4629 59.2452 18.9475C57.6948 19.4346 56.0776 19.7998 54.4614 20.2644C52.8526 20.7323 51.2238 21.3136 49.7993 22.2843C48.3732 23.2418 47.2172 24.6312 46.5408 26.2842C45.8403 27.9238 45.4983 29.7353 45.329 31.5743C45.1456 33.4157 45.1564 35.253 45.0588 37.0737C44.9654 38.8901 44.7661 40.6924 44.2982 42.4121C43.8195 44.1193 43.0355 45.7573 41.8321 47.0108C40.6445 48.2859 39.1416 49.0974 37.738 49.8764C36.3177 50.6428 34.9733 51.4326 33.8482 52.4451C32.7123 53.4401 31.7782 54.5918 31.0685 55.8145C30.3537 57.0363 29.8959 58.3457 29.6799 59.6375C29.4739 60.9327 29.5281 62.2104 29.7741 63.3872C30.2753 65.7416 31.568 67.6698 33.1293 68.7665C34.6922 69.8832 36.3827 70.2544 37.7213 70.2827C39.0782 70.3094 40.1074 69.9866 40.7596 69.7097C41.4192 69.4329 41.7203 69.1943 41.7378 69.2244Z" fill="#455A64"/>
<path d="M99.2246 50.7237C99.2663 51.8213 98.3706 52.7612 97.2255 52.8254C96.083 52.8888 95.1205 52.054 95.0797 50.9564C95.0388 49.8589 95.9337 48.9181 97.0762 48.8547C98.2213 48.7905 99.1829 49.627 99.2246 50.7237Z" fill="#263238"/>
<path d="M100.98 44.3862C100.723 44.6581 99.1462 43.4963 96.9103 43.5071C94.6768 43.4863 93.038 44.6397 92.7953 44.3662C92.6761 44.2452 92.9379 43.7557 93.651 43.2336C94.3532 42.714 95.5517 42.2078 96.9445 42.2103C98.3373 42.2144 99.5099 42.7248 100.185 43.2486C100.873 43.7757 101.107 44.2653 100.98 44.3862Z" fill="#263238"/>
<path d="M79.865 50.7246C79.9059 51.8221 79.011 52.7612 77.8659 52.8254C76.7233 52.8888 75.7617 52.054 75.72 50.9564C75.6791 49.8597 76.574 48.9181 77.7174 48.8547C78.8617 48.7905 79.8241 49.627 79.865 50.7246Z" fill="#263238"/>
<path d="M79.8091 44.387C79.5514 44.6589 77.9727 43.4971 75.7384 43.508C73.5049 43.4871 71.8661 44.6405 71.6234 44.3678C71.5042 44.2469 71.7627 43.7573 72.4791 43.2361C73.1813 42.7157 74.3798 42.2094 75.7725 42.2119C77.1653 42.2169 78.3379 42.7274 79.0126 43.2503C79.6999 43.7749 79.9351 44.2652 79.8091 44.387Z" fill="#263238"/>
<path d="M117.748 114.371C108.095 102.626 99.75 100.957 99.75 100.957L99.8059 142.867L130.577 181.786L143.096 149.755C143.096 149.755 124.287 122.328 117.748 114.371Z" fill="#E27900"/>
<path d="M86.0791 97.6387L99.8735 100.987C99.8735 100.987 106.996 142.294 104.413 152.979C102.215 162.069 95.1614 204.019 95.1614 204.019H10.1126L38.6087 122.155C38.6087 122.155 38.773 104.158 34.3744 95.8423C37.0407 95.201 46.0463 93.5446 53.8283 92.0835C53.8283 92.0835 59.0016 98.5403 71.178 100.385C83.3536 102.23 86.0791 97.6387 86.0791 97.6387Z" fill="#E27900"/>
<path d="M102.963 132.236H49.5291C44.8587 159.563 33.4896 170.042 13.4377 185.862L10.1126 204.019H95.1614L100.097 175.491L99.8068 164.985L102.963 132.236Z" fill="#455A64"/>
<path d="M36.4244 95.4387C36.4244 95.4387 16.1023 97.0666 8.81068 130.362C5.51221 145.421 1.34555 163.071 0.14459 174.933C-0.72694 183.537 2.35051 195.427 10.6205 197.396L25.6408 199.313C32.3503 199.413 36.9548 193.961 38.3668 188.118L40.7095 178.83C42.3241 167.474 33.678 166.49 28.8167 166.595L39.5102 124.304L41.5811 103.841L36.4244 95.4387Z" fill="#E27900"/>
<path d="M105.841 123.759C105.852 123.757 105.883 123.917 105.934 124.223C105.986 124.561 106.053 125.007 106.138 125.565C106.181 125.86 106.228 126.184 106.279 126.536C106.315 126.895 106.354 127.282 106.396 127.697C106.48 128.53 106.582 129.479 106.626 130.533C106.781 132.638 106.777 135.153 106.676 137.939C106.559 140.726 106.243 143.781 105.777 146.963C105.309 150.147 104.722 153.157 104.127 155.879C103.542 158.604 102.943 161.04 102.436 163.084C101.919 165.126 101.491 166.776 101.18 167.912C101.029 168.455 100.908 168.89 100.817 169.218C100.73 169.516 100.68 169.671 100.669 169.668C100.658 169.665 100.687 169.505 100.753 169.202C100.83 168.869 100.931 168.429 101.057 167.88C101.338 166.701 101.731 165.052 102.213 163.029C102.69 160.979 103.266 158.54 103.834 155.816C104.413 153.095 104.99 150.09 105.455 146.915C105.92 143.741 106.244 140.7 106.378 137.924C106.495 135.15 106.521 132.643 106.397 130.544C106.368 129.493 106.283 128.546 106.216 127.713C106.184 127.298 106.153 126.91 106.125 126.552C106.085 126.199 106.048 125.875 106.013 125.579C105.953 125.019 105.906 124.57 105.87 124.232C105.84 123.924 105.83 123.76 105.841 123.759Z" fill="#263238"/>
<path d="M12.7697 178.273C12.7513 178.269 12.7955 177.968 12.9306 177.436C13.0641 176.903 13.3109 176.143 13.7154 175.246C14.5102 173.456 16.0806 171.115 18.5326 169.33C20.9854 167.545 23.6967 166.772 25.6441 166.565C26.6232 166.455 27.4214 166.455 27.9702 166.49C28.5181 166.526 28.8183 166.576 28.8167 166.595C28.815 166.662 27.5999 166.519 25.6742 166.792C23.7626 167.054 21.123 167.847 18.7244 169.593C16.3275 171.338 14.7604 173.605 13.9239 175.344C13.0708 177.091 12.8339 178.292 12.7697 178.273Z" fill="#263238"/>
<path d="M17.4676 161.687C17.4676 161.664 17.6419 161.649 17.9588 161.641C18.2758 161.628 18.7344 161.647 19.2982 161.7C20.4258 161.805 21.9787 162.121 23.5858 162.779C25.1921 163.442 26.5182 164.31 27.393 165.029C27.8317 165.388 28.1703 165.697 28.3863 165.929C28.6057 166.158 28.7183 166.291 28.7032 166.308C28.6657 166.347 28.1545 165.873 27.2529 165.212C26.3539 164.55 25.0362 163.731 23.4624 163.08C21.8861 162.435 20.3749 162.09 19.2699 161.928C18.1632 161.764 17.4668 161.742 17.4676 161.687Z" fill="#263238"/>
<path d="M38.5044 118.575C38.4819 118.574 38.4652 118.256 38.4552 117.685C38.451 117.113 38.4185 116.285 38.3485 115.267C38.2125 113.23 37.8339 110.425 36.9965 107.425C36.1509 104.426 35.0133 101.833 34.0692 100.023C33.5988 99.1174 33.1968 98.3935 32.9024 97.9031C32.6139 97.4094 32.4629 97.13 32.4813 97.1175C32.4996 97.105 32.6873 97.361 33.01 97.8364C33.3378 98.3076 33.7731 99.0174 34.2719 99.9147C35.2735 101.708 36.4553 104.311 37.3093 107.336C38.155 110.363 38.5002 113.201 38.5778 115.254C38.6187 116.28 38.617 117.112 38.582 117.686C38.5536 118.259 38.5269 118.575 38.5044 118.575Z" fill="#263238"/>
<g opacity="0.3">
<path d="M104.905 151.714C110.09 142.934 110.201 131.524 105.677 122.385C107.027 132.117 106.917 142.093 104.752 151.676" fill="black"/>
</g>
<path d="M34.5988 195.643C34.5654 195.614 34.246 196.067 33.4879 196.692C32.7256 197.306 31.4663 198.018 29.7683 198.468C28.0761 198.932 25.9677 199.124 23.6475 199.006C21.3265 198.838 18.7661 198.566 16.1049 198.171C13.4519 197.759 10.9032 197.281 8.74312 196.474C7.68227 196.033 6.79323 195.36 6.03762 194.668C5.28369 193.968 4.65902 193.231 4.14528 192.52C3.11446 191.095 2.47311 189.812 2.06862 188.915C1.87513 188.462 1.72335 188.11 1.63328 187.866C1.53737 187.624 1.48149 187.499 1.47148 187.502C1.46064 187.506 1.49566 187.638 1.57156 187.888C1.64245 188.139 1.77505 188.501 1.9527 188.964C2.32383 189.882 2.93848 191.194 3.95929 192.654C4.4672 193.384 5.09103 194.142 5.85414 194.866C6.61892 195.581 7.52464 196.283 8.62552 196.75C10.8456 197.596 13.3852 198.076 16.0565 198.493C18.7328 198.89 21.2898 199.152 23.6325 199.305C25.9811 199.408 28.1161 199.191 29.8292 198.69C31.548 198.204 32.8182 197.444 33.568 196.79C33.9333 196.449 34.2085 196.178 34.3611 195.963C34.5262 195.759 34.6071 195.65 34.5988 195.643Z" fill="#263238"/>
<path d="M37.9523 129.186C37.8656 129.165 35.7222 137.484 33.1668 147.766C30.6106 158.052 28.609 166.405 28.6966 166.426C28.7833 166.448 30.9259 158.13 33.4821 147.845C36.0383 137.562 38.039 129.208 37.9523 129.186Z" fill="#263238"/>
<path d="M40.5402 176.137C40.5619 176.138 40.6011 175.895 40.6436 175.453C40.6812 175.011 40.742 174.368 40.687 173.564C40.6403 172.763 40.3684 171.792 39.7738 170.899C39.4785 170.456 39.1525 170.002 38.7305 169.589C38.3135 169.177 37.818 168.823 37.2868 168.514C35.1226 167.336 32.9417 166.844 31.3712 166.605C30.5823 166.492 29.9384 166.45 29.4939 166.438C29.0494 166.425 28.8033 166.443 28.8025 166.463C28.7992 166.517 29.7816 166.554 31.3345 166.832C32.8716 167.123 35.0275 167.654 37.125 168.796C37.6379 169.094 38.1124 169.429 38.5094 169.817C38.9064 170.199 39.2325 170.641 39.5236 171.062C40.1065 171.913 40.3826 172.81 40.4585 173.586C40.5411 174.363 40.5169 175.006 40.5177 175.448C40.5135 175.89 40.5169 176.137 40.5402 176.137Z" fill="#263238"/>
<path d="M81.6383 174.971C81.6268 174.977 81.6145 174.982 81.6022 174.989C81.6129 174.983 81.6251 174.977 81.6383 174.971Z" fill="#FFBF9D"/>
<path d="M81.4156 175.077C81.3866 175.091 81.3593 175.105 81.3345 175.116C81.3577 175.105 81.3833 175.092 81.4156 175.077Z" fill="#FFBF9D"/>
<path d="M81.6014 174.989C81.5288 175.023 81.4654 175.054 81.4162 175.077C81.4796 175.047 81.5463 175.016 81.6014 174.989Z" fill="#FFBF9D"/>
<path d="M81.72 174.932C81.6894 174.947 81.6662 174.958 81.6389 174.971C81.6861 174.948 81.72 174.932 81.72 174.932Z" fill="#FFBF9D"/>
<path d="M100.809 192.467C99.1779 189.381 86.4269 181.243 86.4269 181.243L89.8788 180.446L93.6894 182.057C93.6894 182.057 93.9279 183.628 95.329 185.627C96.731 187.625 99.1087 185.558 99.1087 185.558L97.4983 177.84L89.9589 173.303C89.9589 173.303 82.8649 174.387 81.7198 174.932L78.6957 177.7C77.3688 178.74 73.5374 182.842 72.4891 182.966C71.4408 183.09 38.5311 175.687 38.5311 175.687C34.0192 179.26 31.6423 186.359 30.925 191.48C30.925 191.48 30.1227 193.995 30.9959 195.36L71.3957 198.53L79.9559 200.896C79.9559 200.896 84.6922 202.83 86.9899 203.313C89.838 203.911 91.757 202.994 91.8329 201.417C91.9096 199.84 89.7004 199.669 89.7004 199.669C89.7004 199.669 86.1058 198.369 84.1951 197.248C82.2844 196.127 81.0876 193.839 81.0876 193.839L84.1401 194.204C84.1401 194.204 90.6286 198.708 93.068 200.029C95.5075 201.35 95.9887 198.926 96.1855 198.187C96.3824 197.448 88.898 190.126 88.898 190.126C88.898 190.126 96.0146 194.514 97.2947 195.62C98.5749 196.727 100.472 197.058 100.878 196.316C101.285 195.574 102.441 195.553 100.809 192.467Z" fill="#FFBF9D"/>
<path d="M81.3331 175.117C81.3033 175.131 81.2801 175.142 81.2619 175.15C81.2818 175.141 81.3058 175.13 81.3331 175.117Z" fill="#FFBF9D"/>
<path d="M81.2234 175.169C81.2108 175.175 81.2108 175.175 81.2234 175.169V175.169Z" fill="#FFBF9D"/>
<path d="M81.2623 175.151C81.2446 175.159 81.2311 175.166 81.2227 175.169C81.2303 175.166 81.2429 175.16 81.2623 175.151Z" fill="#FFBF9D"/>
<path d="M65.6987 193.181C65.6778 193.182 65.6653 193.005 65.6603 192.681C65.6503 192.518 65.6669 192.321 65.6995 192.093C65.7211 191.862 65.7612 191.603 65.8396 191.324C66.094 190.188 66.8237 188.726 67.9071 187.338C68.9896 185.946 70.1547 184.855 71.0196 184.103C71.8886 183.353 72.4641 182.937 72.4882 182.966C72.5174 183.001 71.9903 183.474 71.1622 184.26C70.3382 185.048 69.2081 186.152 68.1439 187.521C67.0789 188.887 66.3425 190.289 66.0439 191.379C65.7287 192.465 65.7612 193.183 65.6987 193.181Z" fill="#FF9A6C"/>
<path d="M86.1333 181.003C86.1458 181.077 85.1292 181.206 83.9574 180.808C82.7823 180.418 82.0492 179.703 82.1043 179.65C82.1585 179.578 82.9383 180.156 84.0525 180.523C85.1626 180.903 86.1333 180.912 86.1333 181.003Z" fill="#FF9A6C"/>
<path d="M88.2517 189.452C88.22 189.529 86.7672 189.003 85.0058 188.279C83.2443 187.554 81.8424 186.905 81.8741 186.828C81.9058 186.752 83.3586 187.277 85.12 188.002C86.8814 188.727 88.2834 189.376 88.2517 189.452Z" fill="#FF9A6C"/>
<path d="M81.4145 193.769C81.3745 193.844 80.6514 193.531 79.7499 193.18C78.85 192.827 78.1061 192.566 78.1269 192.484C78.1461 192.406 78.9392 192.54 79.8583 192.901C80.779 193.26 81.4537 193.699 81.4145 193.769Z" fill="#FF9A6C"/>
<path d="M87.2025 190.015C87.235 190.098 86.4961 190.372 85.944 191.114C85.3752 191.845 85.3085 192.63 85.2201 192.62C85.1834 192.62 85.145 192.419 85.1951 192.094C85.2434 191.772 85.4011 191.334 85.7055 190.932C86.0107 190.532 86.391 190.263 86.6888 190.131C86.9873 189.998 87.1917 189.98 87.2025 190.015Z" fill="#FF9A6C"/>
<path d="M90.1966 185.3C90.2358 185.378 89.6778 185.68 89.31 186.327C88.9272 186.965 88.9381 187.6 88.8513 187.604C88.7754 187.632 88.617 186.912 89.0515 186.176C89.4785 185.436 90.1832 185.22 90.1966 185.3Z" fill="#FF9A6C"/>
<path d="M89.1808 176.875C89.1474 176.89 89.0315 176.75 88.9422 176.473C88.8522 176.198 88.813 175.784 88.9172 175.348C89.0231 174.914 89.2475 174.563 89.4526 174.36C89.6586 174.154 89.8263 174.082 89.848 174.112C89.9055 174.177 89.3868 174.633 89.2074 175.418C89.009 176.2 89.2617 176.843 89.1808 176.875Z" fill="#FF9A6C"/>
<path d="M30.6381 196.518C30.6607 196.517 30.679 196.186 30.6923 195.589C30.6957 195.291 30.704 194.926 30.7349 194.504C30.7624 194.081 30.7732 193.599 30.835 193.07C31.0184 190.952 31.4913 188.027 32.5989 184.974C33.161 183.453 33.8265 182.056 34.5129 180.831C34.884 180.236 35.2093 179.651 35.5813 179.149C35.7597 178.894 35.9332 178.648 36.1 178.409C36.2793 178.183 36.4528 177.965 36.6187 177.756C37.9606 176.105 38.989 175.262 38.9406 175.208C38.9256 175.192 38.6696 175.399 38.2159 175.792C37.984 175.984 37.713 176.231 37.4219 176.543C37.1258 176.85 36.7755 177.188 36.4419 177.609C36.2685 177.817 36.0883 178.033 35.9015 178.256C35.7222 178.488 35.5479 178.739 35.3611 178.994C34.9749 179.496 34.6363 180.081 34.2544 180.681C33.5446 181.913 32.8624 183.324 32.2936 184.863C31.1727 187.953 30.7324 190.916 30.6065 193.053C30.5589 193.588 30.5647 194.073 30.5539 194.499C30.5405 194.924 30.5506 195.291 30.5664 195.59C30.5906 196.188 30.6156 196.518 30.6381 196.518Z" fill="#263238"/>
<g opacity="0.3">
<path d="M58.6272 137.868V138.968L52.4823 139.368L49.3689 114.616C49.3689 114.616 48.0454 106.287 47.1897 103.252C46.3332 100.216 42.6811 94.176 42.6811 94.176L45.3857 93.6656L50.6533 102.24L58.6272 137.868Z" fill="black"/>
</g>
<path d="M59.4362 137.831C59.4362 137.831 56.7123 114.843 54.1394 105.661C51.5665 96.4786 47.5542 93.206 47.5542 93.206L43.596 93.9508C43.596 93.9508 47.5358 98.7471 49.0612 107.201C50.5866 115.655 53.4372 138.107 53.4372 138.107L59.4362 137.831Z" fill="#455A64"/>
<path d="M59.4362 137.831C59.4428 137.837 59.3185 137.848 59.0675 137.867C58.7873 137.885 58.4128 137.91 57.9333 137.943C56.8849 138.004 55.3829 138.093 53.4422 138.206L53.3505 138.212L53.3371 138.119C52.7591 133.939 51.8868 127.633 50.8209 119.928C50.2596 116.068 49.6642 111.85 48.8844 107.407C48.4966 105.192 47.8769 102.957 47.0279 100.753C46.1697 98.5578 45.0864 96.3719 43.6585 94.3903L43.4284 94.0876L43.2107 93.8015L43.5559 93.7364C44.912 93.4812 46.2506 93.2302 47.5141 92.9925L47.6209 92.9725L47.6918 93.0376C48.9453 94.1935 49.8844 95.5354 50.7192 96.9123C51.5465 98.2926 52.2312 99.7204 52.8217 101.152C53.9876 104.023 54.7374 106.917 55.3045 109.675C56.4362 115.197 57.1752 120.183 57.779 124.356C58.3745 128.53 58.7948 131.899 59.0692 134.222C59.196 135.362 59.2952 136.257 59.3661 136.896C59.3928 137.184 59.4136 137.413 59.4303 137.592C59.4403 137.761 59.4412 137.836 59.4362 137.831C59.432 137.827 59.4136 137.741 59.3869 137.597C59.3602 137.419 59.3252 137.192 59.2827 136.908C59.1934 136.271 59.0684 135.38 58.9082 134.244C58.5855 131.927 58.1201 128.566 57.4871 124.4C56.8449 120.237 56.0743 115.257 54.9234 109.757C54.3462 107.009 53.594 104.148 52.4339 101.311C51.8476 99.8972 51.1679 98.4894 50.3522 97.1333C49.5391 95.7881 48.5841 94.4478 47.4174 93.3736L47.5942 93.4187C46.3315 93.6564 44.9929 93.9082 43.636 94.1643L43.7636 93.8132L44.008 94.1334C45.4708 96.1642 46.56 98.371 47.4291 100.599C48.2864 102.831 48.9094 105.096 49.2956 107.334C50.0662 111.793 50.6458 116.012 51.1871 119.877C52.2496 127.61 53.0385 133.941 53.5364 138.094L53.4322 138.006C55.3496 137.943 56.8332 137.894 57.8682 137.86C58.3586 137.848 58.7423 137.838 59.0283 137.83C59.2919 137.825 59.4295 137.825 59.4362 137.831Z" fill="#263238"/>
<path d="M99.75 100.957C99.75 100.957 100.666 126.085 97.5166 138.967L91.5118 138.775C91.5118 138.775 95.9737 107.528 95.3857 99.7329C95.3857 99.7329 97.9119 99.7246 99.75 100.957Z" fill="#455A64"/>
<path d="M99.75 100.957C99.7258 100.971 99.4114 100.747 98.6959 100.455C97.9853 100.179 96.8644 99.8588 95.3857 99.8297L95.4799 99.7271C95.7018 103.237 95.2773 108.724 94.6059 115.47C93.9104 122.216 92.9287 130.228 91.7261 138.807L91.5184 138.559C91.5677 138.561 91.6202 138.562 91.6736 138.564C93.6777 138.628 95.6501 138.692 97.5233 138.752L97.3073 138.917C98.4982 133.679 98.9569 128.602 99.2613 124.034C99.5549 119.459 99.6625 115.365 99.7167 111.946C99.7692 108.527 99.7542 105.779 99.7442 103.888C99.7392 102.967 99.735 102.242 99.7325 101.715C99.7308 101.214 99.7383 100.968 99.75 100.957C99.7617 100.946 99.7876 101.218 99.8134 101.71C99.8351 102.238 99.8643 102.963 99.901 103.884C99.9594 105.775 100.018 108.524 100.004 111.948C99.9886 115.371 99.9135 119.47 99.6433 124.057C99.3622 128.638 98.9219 133.727 97.7259 139.018L97.6875 139.187L97.5099 139.181C95.6368 139.122 93.6643 139.059 91.6602 138.997C91.6069 138.995 91.5543 138.993 91.5051 138.992L91.2632 138.984L91.2966 138.744C92.4984 130.172 93.5051 122.166 94.2423 115.43C94.9562 108.697 95.4391 103.218 95.2906 99.7404L95.2865 99.6345L95.3857 99.6387C96.9036 99.6979 98.0228 100.054 98.7342 100.363C99.0903 100.524 99.3439 100.669 99.5132 100.782C99.6808 100.896 99.7575 100.953 99.75 100.957Z" fill="#263238"/>
<path d="M93.4816 135.32C93.4816 136.312 94.2856 137.116 95.2781 137.116C96.2705 137.116 97.0745 136.312 97.0745 135.32C97.0745 134.327 96.2705 133.523 95.2781 133.523C94.2856 133.523 93.4816 134.328 93.4816 135.32Z" fill="#E0E0E0"/>
<path d="M95.2781 137.138C94.2757 137.138 93.46 136.322 93.46 135.32C93.46 134.317 94.2757 133.502 95.2781 133.502C96.2806 133.502 97.0963 134.317 97.0963 135.32C97.0954 136.323 96.2806 137.138 95.2781 137.138ZM95.2781 133.545C94.299 133.545 93.5026 134.341 93.5026 135.321C93.5026 136.3 94.299 137.096 95.2781 137.096C96.2573 137.096 97.0537 136.3 97.0537 135.321C97.0537 134.341 96.2573 133.545 95.2781 133.545Z" fill="#263238"/>
<path d="M56.0234 136.516C57.0155 136.516 57.8198 135.712 57.8198 134.72C57.8198 133.728 57.0155 132.924 56.0234 132.924C55.0312 132.924 54.2269 133.728 54.2269 134.72C54.2269 135.712 55.0312 136.516 56.0234 136.516Z" fill="#E0E0E0"/>
<path d="M56.0226 136.537C55.0209 136.537 54.2053 135.723 54.2053 134.72C54.2053 133.718 55.0209 132.902 56.0226 132.902C57.025 132.902 57.8407 133.718 57.8407 134.72C57.8407 135.723 57.0259 136.537 56.0226 136.537ZM56.0226 132.945C55.0435 132.945 54.2478 133.742 54.2478 134.721C54.2478 135.7 55.0435 136.496 56.0226 136.496C57.0017 136.496 57.7982 135.7 57.7982 134.721C57.7982 133.742 57.0017 132.945 56.0226 132.945Z" fill="#263238"/>
<path d="M91.8896 153.72C91.8971 153.72 91.9021 153.814 91.9038 153.995C91.9029 154.201 91.9013 154.467 91.8996 154.802C91.8879 155.511 91.8704 156.557 91.7645 157.902C91.6528 159.243 91.4743 160.898 90.9205 162.747C90.3976 164.606 89.3042 166.567 87.758 168.429C84.743 172.257 79.2954 175.193 72.9403 176C71.3465 176.182 69.696 176.217 68.0205 176.066C66.3525 175.918 64.6245 175.542 63.0499 174.752C59.874 173.229 57.2035 170.509 55.4813 167.225C53.7491 163.927 53.0244 160.286 52.9026 156.812C52.8792 155.935 52.8584 155.087 52.931 154.211C52.9768 153.775 53.0594 153.331 53.2629 152.916C53.4597 152.503 53.8092 152.136 54.2395 151.954C55.1152 151.598 55.9759 151.765 56.7757 151.769C57.5897 151.801 58.3945 151.833 59.1893 151.865C65.5427 152.126 71.2665 152.362 76.0836 152.559C80.8708 152.772 84.7547 152.945 87.4719 153.065C88.7938 153.133 89.8313 153.186 90.5669 153.224C90.9013 153.246 91.1674 153.263 91.3717 153.277C91.5527 153.291 91.6452 153.302 91.6452 153.309C91.6452 153.317 91.5518 153.321 91.37 153.321C91.1649 153.318 90.8988 153.315 90.5635 153.312C89.8271 153.293 88.7888 153.267 87.4652 153.233C84.7464 153.146 80.8616 153.021 76.072 152.865C71.2531 152.694 65.5285 152.49 59.1735 152.264C58.3787 152.235 57.5739 152.206 56.759 152.176C55.9501 152.165 55.0977 152.036 54.4071 152.332C53.7066 152.625 53.4138 153.444 53.3488 154.251C53.2821 155.07 53.3021 155.941 53.3271 156.795C53.453 160.221 54.1711 163.797 55.865 167.022C57.5471 170.231 60.1551 172.885 63.2334 174.367C64.7629 175.136 66.4159 175.499 68.0589 175.651C69.7002 175.804 71.3273 175.775 72.8944 175.6C79.1611 174.823 84.5254 171.97 87.5211 168.23C89.0648 166.401 90.1507 164.497 90.6878 162.673C91.2558 160.859 91.4584 159.219 91.5952 157.885C91.7261 156.548 91.7712 155.504 91.8112 154.797C91.8304 154.463 91.8462 154.196 91.8579 153.992C91.8721 153.813 91.8821 153.72 91.8896 153.72Z" fill="#263238"/>
<g opacity="0.3">
<path d="M45.2715 177.133C45.7285 174.043 44.8069 170.979 42.8412 168.552C40.8755 166.125 37.8664 164.574 34.7489 164.379C34.3961 153.86 35.1668 143.303 37.0449 132.946L28.7041 166.308C28.7041 166.308 40.3192 166.468 40.541 176.137L45.2715 177.133Z" fill="black"/>
</g>
<g opacity="0.3">
<path d="M54.1369 50.1124C55.0126 43.282 57.4162 36.6517 61.1208 30.847C61.5287 30.2082 61.9615 29.3967 61.5779 28.7428C61.2501 28.1832 60.4403 28.0723 59.8473 28.3367C59.2543 28.601 58.8348 29.1381 58.4604 29.6686C54.3779 35.4524 52.8009 42.9425 54.2053 49.8806" fill="black"/>
</g>
<path d="M198.27 146.231L186.471 204.156H104.675H84.0583C82.9291 204.156 82.0125 203.24 82.0125 202.11C82.0125 200.981 82.9283 200.064 84.0583 200.064H104.675L115.614 146.193C115.824 145.16 116.727 144.414 117.781 144.402L196.054 143.547C197.479 143.532 198.555 144.835 198.27 146.231Z" fill="#E0E0E0"/>
<path d="M198.27 146.231C198.27 146.231 198.283 146.173 198.302 146.057C198.321 145.941 198.336 145.763 198.312 145.53C198.271 145.083 198.028 144.33 197.229 143.837C197.033 143.716 196.802 143.629 196.552 143.569C196.3 143.512 196.025 143.516 195.747 143.519C195.185 143.523 194.57 143.528 193.904 143.533C192.57 143.544 191.031 143.557 189.296 143.571C182.349 143.637 172.265 143.733 159.7 143.852C153.415 143.915 146.511 143.985 139.068 144.059C135.347 144.098 131.49 144.138 127.511 144.178C125.521 144.199 123.499 144.22 121.448 144.241C120.422 144.252 119.39 144.263 118.349 144.274C118.086 144.28 117.838 144.269 117.557 144.293C117.283 144.321 117.014 144.399 116.766 144.521C116.27 144.764 115.862 145.188 115.642 145.7C115.527 145.956 115.479 146.234 115.428 146.487L115.269 147.266C115.163 147.786 115.057 148.308 114.951 148.832C114.738 149.88 114.523 150.934 114.307 151.995C113.875 154.116 113.438 156.265 112.996 158.438C112.112 162.786 111.206 167.234 110.283 171.775C108.437 180.856 106.516 190.303 104.538 200.036L104.675 199.924C100.803 199.924 96.8352 199.923 92.802 199.923C90.7854 199.923 88.7521 199.923 86.7071 199.923H85.1709H84.4011C84.1517 199.926 83.8773 199.91 83.6038 199.971C83.0634 200.082 82.5746 200.412 82.2619 200.865C81.945 201.317 81.8149 201.895 81.8991 202.44C81.9925 203.111 82.427 203.712 83.0167 204.033C83.3127 204.191 83.6455 204.281 83.9799 204.293L84.9248 204.297C86.1775 204.297 87.4268 204.297 88.672 204.297C91.1632 204.297 93.6393 204.297 96.0996 204.297C101.02 204.297 105.878 204.296 110.661 204.296C120.227 204.293 129.498 204.291 138.387 204.289C156.164 204.28 172.418 204.271 186.472 204.265H186.56L186.578 204.178C190.184 186.374 193.118 171.891 195.15 161.854C196.16 156.839 196.944 152.936 197.478 150.282C197.741 148.959 197.941 147.948 198.077 147.263C198.21 146.581 198.27 146.231 198.27 146.231C198.27 146.231 198.189 146.577 198.045 147.256C197.903 147.939 197.692 148.948 197.416 150.268C196.868 152.92 196.065 156.819 195.031 161.829C192.976 171.861 190.011 186.338 186.365 204.134L186.471 204.047C172.417 204.04 156.163 204.032 138.386 204.023C129.497 204.02 120.227 204.019 110.66 204.016C105.877 204.015 101.019 204.015 96.0988 204.015C93.6385 204.015 91.1623 204.015 88.6712 204.014C87.426 204.014 86.1767 204.014 84.924 204.014L83.9891 204.01C83.6972 204 83.4086 203.922 83.1509 203.784C82.638 203.504 82.2594 202.98 82.1785 202.397C82.1051 201.921 82.2177 201.421 82.4937 201.026C82.7665 200.631 83.1926 200.344 83.6622 200.247C83.894 200.195 84.1384 200.207 84.4011 200.206H85.1709H86.7071C88.7529 200.206 90.7854 200.206 92.802 200.206C96.8352 200.206 100.803 200.205 104.675 200.205H104.789L104.812 200.092C106.786 190.359 108.702 180.911 110.545 171.829C111.465 167.288 112.367 162.838 113.248 158.49C113.689 156.316 114.124 154.167 114.554 152.046C114.77 150.985 114.983 149.931 115.195 148.883C115.301 148.359 115.407 147.837 115.513 147.317L115.67 146.538C115.724 146.273 115.766 146.026 115.869 145.8C116.066 145.342 116.43 144.962 116.874 144.744C117.096 144.634 117.337 144.565 117.582 144.539C117.821 144.518 118.096 144.526 118.352 144.52C119.392 144.508 120.425 144.495 121.45 144.484C123.501 144.46 125.522 144.437 127.512 144.414C131.492 144.369 135.348 144.324 139.07 144.281C146.512 144.193 153.416 144.113 159.7 144.038C172.266 143.883 182.349 143.758 189.296 143.673C191.031 143.65 192.57 143.629 193.904 143.611C194.57 143.601 195.185 143.592 195.746 143.585C196.028 143.58 196.292 143.574 196.539 143.627C196.783 143.684 197.009 143.766 197.201 143.883C197.987 144.358 198.236 145.092 198.285 145.535C198.333 145.995 198.255 146.23 198.27 146.231Z" fill="#263238"/>
<path d="M151.078 172.74C151.078 174.608 152.592 176.122 154.46 176.122C156.329 176.122 157.843 174.608 157.843 172.74C157.843 170.871 156.329 169.357 154.46 169.357C152.592 169.358 151.078 170.872 151.078 172.74Z" fill="white"/>
<path d="M198.175 146.7C198.175 146.7 198.056 146.691 197.823 146.688C197.579 146.686 197.235 146.685 196.787 146.682C195.866 146.683 194.527 146.685 192.805 146.687C189.338 146.704 184.337 146.728 178.162 146.758C165.789 146.846 148.713 146.966 129.852 147.099C127.492 147.118 125.162 147.137 122.864 147.155C122.29 147.16 121.718 147.164 121.148 147.169C120.87 147.175 120.573 147.158 120.271 147.222C119.976 147.282 119.693 147.397 119.441 147.559C118.934 147.88 118.554 148.393 118.402 148.968C118.274 149.534 118.178 150.071 118.065 150.619C117.2 154.983 116.364 159.192 115.569 163.201C113.984 171.219 112.557 178.441 111.357 184.509C110.17 190.569 109.208 195.476 108.542 198.879C108.218 200.569 107.964 201.885 107.791 202.789C107.709 203.229 107.646 203.568 107.602 203.807C107.561 204.037 107.547 204.156 107.547 204.156C107.547 204.156 107.58 204.04 107.63 203.813C107.681 203.575 107.753 203.238 107.847 202.8C108.032 201.899 108.303 200.588 108.65 198.901C109.337 195.504 110.328 190.602 111.553 184.549C112.769 178.484 114.217 171.267 115.824 163.254C116.624 159.245 117.465 155.037 118.337 150.675C118.447 150.135 118.55 149.571 118.669 149.043C118.805 148.533 119.141 148.08 119.59 147.796C119.814 147.653 120.065 147.551 120.326 147.498C120.583 147.44 120.859 147.456 121.15 147.451C121.719 147.447 122.292 147.442 122.866 147.438C125.163 147.42 127.494 147.402 129.853 147.384C148.714 147.218 165.79 147.068 178.164 146.96C184.338 146.892 189.339 146.837 192.806 146.799C194.528 146.774 195.867 146.754 196.788 146.741C197.235 146.731 197.58 146.724 197.823 146.718C198.055 146.71 198.175 146.7 198.175 146.7Z" fill="#263238"/>
</svg>
