<svg width="303" height="255" viewBox="0 0 303 255" fill="none" xmlns="http://www.w3.org/2000/svg">
<path d="M216.966 43.101C219.817 44.7965 223.894 43.9759 225.868 41.3087C227.841 38.6424 227.435 34.5033 224.98 32.2715C227.711 31.1965 229.593 28.265 229.433 25.3343C229.273 22.4036 227.084 19.694 224.252 18.9225C225.33 16.232 224.891 12.9903 223.136 10.6826C221.381 8.37573 218.374 7.08803 215.493 7.40912C213.7 3.59274 209.036 1.38097 204.947 2.40846C202.594 0.779657 199.18 0.887244 196.933 2.66033C194.687 4.43425 193.79 7.72938 194.829 10.3965" fill="#263238"/>
<path d="M217.472 44.3704C222.512 30.2733 215.88 14.6716 202.233 8.51586L200.877 7.9037C185.871 2.16245 172.611 11.6984 167.287 26.8572L143.953 79.0898L155.996 117.81L173.993 98.587L182.738 88.4748C182.738 88.4748 197.779 92.6306 204.292 78.6561C207.438 71.9065 212.785 57.4817 217.472 44.3704Z" fill="#AE7461"/>
<path d="M182.864 88.5073C182.864 88.5073 173.646 84.9987 166.882 74.8114C166.882 74.8114 165.41 86.4181 180.003 91.4788L182.864 88.5073Z" fill="#6F4439"/>
<path d="M208.02 55.4884C207.579 56.5651 206.304 57.0797 205.171 56.6402C204.041 56.2015 203.478 54.9747 203.919 53.898C204.359 52.8213 205.634 52.305 206.765 52.7437C207.899 53.1832 208.46 54.4125 208.02 55.4884Z" fill="#263238"/>
<path d="M211.35 49.8831C210.983 50.0324 209.97 48.2218 207.809 47.2526C205.663 46.2543 203.577 46.6505 203.462 46.2802C203.399 46.1109 203.866 45.7523 204.783 45.5613C205.688 45.367 207.066 45.4037 208.409 46.0158C209.751 46.6305 210.659 47.6355 211.08 48.4361C211.514 49.2467 211.525 49.8214 211.35 49.8831Z" fill="#263238"/>
<path d="M188.171 47.0166C187.731 48.0933 186.456 48.6079 185.323 48.1676C184.192 47.7297 183.63 46.5021 184.07 45.4254C184.511 44.3495 185.787 43.8333 186.918 44.2719C188.05 44.7106 188.612 45.9399 188.171 47.0166Z" fill="#263238"/>
<path d="M189.941 40.7091C189.574 40.8584 188.559 39.047 186.398 38.0795C184.253 37.0812 182.166 37.4774 182.051 37.1071C181.989 36.9386 182.453 36.5791 183.373 36.389C184.278 36.1947 185.656 36.2314 186.999 36.8435C188.34 37.4573 189.249 38.464 189.671 39.2638C190.103 40.0719 190.115 40.6474 189.941 40.7091Z" fill="#263238"/>
<path d="M190.553 60.2605C190.598 60.1329 192.045 60.5066 194.346 61.2096C194.923 61.4015 195.495 61.5274 195.757 61.193C196.067 60.8535 196.104 60.1546 196.127 59.3923C196.21 57.8244 196.299 56.1806 196.39 54.4576C196.822 47.457 197.401 41.8025 197.683 41.8216C197.965 41.8425 197.843 47.532 197.41 54.5318C197.29 56.2515 197.178 57.8928 197.067 59.4607C196.993 60.1813 197.032 61.0545 196.377 61.7542C196.042 62.0995 195.503 62.2163 195.107 62.1521C194.705 62.1004 194.392 61.9661 194.112 61.8593C191.868 60.9895 190.506 60.3865 190.553 60.2605Z" fill="#263238"/>
<path d="M193.912 33.6535C193.38 34.0721 191.797 32.6443 189.552 31.5426C187.332 30.3909 185.218 29.9538 185.266 29.2908C185.299 28.9797 185.925 28.6703 186.944 28.6019C187.957 28.531 189.348 28.7512 190.687 29.4259C192.025 30.1031 193.01 31.0814 193.53 31.9263C194.058 32.7736 194.157 33.4491 193.912 33.6535Z" fill="#263238"/>
<path d="M215.061 42.3563C214.385 42.6415 212.833 41.3279 210.699 40.3372C208.596 39.2846 206.593 38.881 206.407 38.1796C206.336 37.8477 206.843 37.4849 207.845 37.3789C208.835 37.2689 210.313 37.4799 211.769 38.1821C213.224 38.8851 214.3 39.906 214.819 40.745C215.349 41.5907 215.37 42.2078 215.061 42.3563Z" fill="#263238"/>
<path d="M163.376 41.5539C164.265 39.3447 163.17 36.7893 160.915 36.0203C158.182 35.0871 154.594 35.2597 152.324 40.7533C148.297 50.4994 158.912 52.5319 159.045 52.2592C159.134 52.0748 161.726 45.6472 163.376 41.5539Z" fill="#AE7461"/>
<path d="M158.439 47.7164C158.409 47.668 158.22 47.7656 157.879 47.7781C157.546 47.7906 157.029 47.6805 156.598 47.2802C155.725 46.4771 155.533 44.4838 156.212 42.7074C156.554 41.8108 157.089 41.0427 157.692 40.4731C158.284 39.8826 158.951 39.5757 159.507 39.6975C160.072 39.7909 160.311 40.2529 160.316 40.5765C160.335 40.9034 160.192 41.0719 160.237 41.1103C160.255 41.1461 160.514 41.0327 160.602 40.5982C160.641 40.388 160.622 40.1111 160.471 39.8292C160.316 39.5423 160.011 39.303 159.634 39.1929C158.861 38.9344 157.899 39.3463 157.236 39.971C156.531 40.5823 155.909 41.4363 155.525 42.4438C154.776 44.4337 155.021 46.6872 156.262 47.6763C156.874 48.1384 157.531 48.1676 157.922 48.06C158.324 47.9449 158.465 47.7481 158.439 47.7164Z" fill="#6F4439"/>
<path d="M218.503 20.7823C218.524 20.5038 218.515 20.2194 218.476 19.9458C218.179 17.8683 216.763 16.0527 214.923 15.0644C214.038 13.9569 213.113 12.9711 212.194 12.1304C211.876 9.24727 210.21 6.50424 207.696 5.03474C204.842 3.36673 201.094 3.44514 198.26 5.12398C197.841 5.00222 197.417 4.89129 196.992 4.78287C195.662 2.45851 193.316 0.723789 190.687 0.192531C187.739 -0.403779 184.524 0.523631 182.347 2.59946C180.287 0.930623 177.216 0.632048 174.874 1.87471C172.532 3.11653 171.056 5.82704 171.282 8.46832C169.11 8.67598 166.857 9.72515 165.924 11.6976C165.047 13.554 165.932 16.1636 167.832 16.7549C165.417 21.2043 163.466 26.8505 161.551 31.7394C160.202 35.1822 163.584 39.1128 162.848 41.5297C159.086 53.8629 165.803 49.1383 178.154 25.6671C178.48 25.5895 178.815 25.5003 179.167 25.3877C179.876 25.1608 180.257 24.6371 180.93 24.3185C181.733 23.9382 182.613 24.5687 183.38 25.0174C186.039 26.5736 189.792 25.8889 191.728 23.492C191.959 24.8798 193.643 25.5837 195.034 25.3752C196.426 25.1667 197.633 24.3418 198.913 23.7564C200.192 23.1709 201.767 22.8406 202.955 23.5946C203.62 24.0157 204.095 24.7388 204.837 24.9974C206.15 25.4544 207.432 24.2551 208.188 23.0892C208.824 22.1067 209.502 20.9716 210.521 20.5163C211.453 20.5071 212.375 20.5955 213.276 20.9208C213.73 21.1902 214.17 21.5062 214.604 21.7848C214.807 21.9149 215.031 22.0283 215.262 22.1309C215.502 22.3511 215.741 22.5938 215.976 22.8757C219.293 26.8438 219.029 37.3164 219.029 37.3164C221.841 31.8745 220.906 25.8597 218.503 20.7823Z" fill="#263238"/>
<path d="M190.899 5.35333C190.891 5.34249 190.968 5.27242 191.124 5.14566C191.277 5.01805 191.521 4.84625 191.852 4.65527C192.511 4.27413 193.561 3.81043 194.959 3.66698C196.34 3.52186 198.107 3.72869 199.74 4.72365C201.358 5.69109 202.829 7.4033 203.401 9.59172L203.119 9.44326C204.065 9.09715 205.096 8.84279 206.167 8.75105C208.757 8.49418 211.322 9.30149 213.016 10.816C214.742 12.2939 215.601 14.3489 215.575 16.0611C215.577 17.7824 214.959 19.0976 214.389 19.8441C214.106 20.2244 213.841 20.4821 213.653 20.6439C213.46 20.7998 213.355 20.8749 213.345 20.8632C213.311 20.8282 213.739 20.5163 214.25 19.7473C214.762 18.9942 215.309 17.709 215.268 16.0669C215.254 14.4364 214.413 12.5141 212.756 11.1196C211.128 9.69513 208.698 8.93953 206.206 9.18389C205.176 9.2723 204.181 9.51499 203.268 9.84525L203.045 9.92615L202.986 9.69763C202.457 7.63182 201.074 5.98716 199.544 5.04558C198.003 4.07814 196.324 3.84629 194.984 3.94804C193.631 4.04895 192.594 4.45678 191.925 4.78955C191.253 5.12899 190.92 5.38252 190.899 5.35333Z" fill="white"/>
<path d="M169.805 8.41078C169.801 8.40327 169.852 8.36991 169.957 8.31153C170.064 8.25732 170.218 8.16225 170.434 8.07301C170.866 7.8987 171.536 7.68853 172.425 7.65934C173.305 7.63933 174.416 7.77443 175.545 8.33155C176.671 8.86114 177.839 9.82941 178.51 11.2739L178.214 11.2372C179.496 9.54835 181.794 8.36073 184.356 8.22145C185.633 8.14389 186.978 8.29568 188.277 8.72435C189.577 9.15553 190.814 9.84442 191.949 10.7051C194.158 12.3948 195.766 14.5665 197.019 16.6332L196.699 16.5923C198.559 14.8067 200.972 14.0144 203.083 14.0044C205.221 13.9827 207.025 14.7567 208.281 15.6332C209.553 16.5214 210.316 17.5156 210.76 18.2178C210.982 18.5722 211.131 18.8583 211.216 19.0585C211.305 19.2569 211.345 19.362 211.334 19.367C211.303 19.382 211.115 18.9709 210.646 18.2937C210.173 17.6256 209.395 16.6799 208.137 15.8451C206.893 15.0211 205.141 14.308 203.088 14.3547C201.059 14.3889 198.749 15.1753 196.987 16.8867L196.802 17.0669L196.666 16.8459C195.419 14.8142 193.831 12.69 191.686 11.0504C190.586 10.2155 189.388 9.54752 188.144 9.13135C186.901 8.71685 185.608 8.56507 184.382 8.63179C181.919 8.75272 179.728 9.86528 178.49 11.4507L178.312 11.6784L178.194 11.414C177.584 10.0554 176.494 9.11216 175.423 8.58257C174.35 8.02546 173.282 7.867 172.429 7.85616C170.689 7.87367 169.826 8.4875 169.805 8.41078Z" fill="white"/>
<path d="M210.894 19.9383C210.902 19.95 210.782 20.0476 210.561 20.236C210.349 20.437 210.045 20.7423 209.698 21.1818C209.347 21.6188 208.949 22.1826 208.462 22.8306C207.961 23.457 207.416 24.2551 206.454 24.7705C205.971 25.0149 205.343 25.0807 204.779 24.8798C204.209 24.6979 203.711 24.3485 203.194 24.0374C202.68 23.7288 202.122 23.4369 201.508 23.4194C200.892 23.4036 200.249 23.6112 199.62 23.8723C198.989 24.1367 198.355 24.4753 197.695 24.798C197.053 25.1158 196.383 25.552 195.565 25.6821C194.764 25.8155 193.925 25.7129 193.141 25.4377C192.748 25.2976 192.36 25.1116 192.013 24.8372C191.666 24.5728 191.365 24.1625 191.3 23.6738L191.678 23.7755C191.29 24.2693 190.842 24.7346 190.306 25.1066C189.767 25.4702 189.164 25.7538 188.524 25.9381C187.236 26.2834 185.829 26.2392 184.519 25.8347C183.971 25.6821 183.457 25.4444 182.956 25.195C182.449 24.9098 182.051 24.6029 181.56 24.567C181.065 24.5086 180.618 24.6437 180.16 24.9173C179.684 25.1717 179.19 25.381 178.691 25.5578C176.712 26.2534 174.529 26.4435 172.701 25.6412C170.912 24.7855 169.72 23.2334 169.067 21.6747C168.417 20.0951 168.315 18.4563 168.616 17.0702L168.732 17.2462C167.387 16.9501 166.42 16.0293 165.946 15.0878C165.456 14.1287 165.468 13.1579 165.629 12.4482C165.792 11.7251 166.099 11.228 166.328 10.9244C166.446 10.7735 166.543 10.6651 166.616 10.5992C166.687 10.5316 166.725 10.4999 166.73 10.5049C166.792 10.5333 166.083 11.0696 165.788 12.4815C165.657 13.1704 165.672 14.0911 166.154 14.9802C166.618 15.8575 167.548 16.7032 168.792 16.9559L168.937 16.9851L168.907 17.1319C168.64 18.463 168.756 20.0325 169.394 21.5388C170.028 23.0224 171.201 24.4995 172.863 25.2792C174.552 26.014 176.644 25.838 178.549 25.1592C179.029 24.9873 179.504 24.7847 179.96 24.5395C180.403 24.2659 181.027 24.0558 181.611 24.14C181.905 24.1725 182.193 24.2651 182.456 24.4044L183.161 24.8147C183.637 25.0507 184.125 25.2776 184.645 25.421C185.887 25.8055 187.211 25.8439 188.411 25.5261C189.007 25.3551 189.565 25.0941 190.065 24.7597C190.562 24.4169 190.978 23.9865 191.342 23.5287L191.654 23.1367L191.72 23.6304C191.814 24.3402 192.58 24.8047 193.28 25.0541C194.008 25.3126 194.778 25.4094 195.502 25.2926C196.223 25.1858 196.859 24.7863 197.527 24.4594C198.191 24.1408 198.826 23.8072 199.484 23.5387C200.138 23.276 200.817 23.055 201.523 23.0792C202.237 23.11 202.842 23.4469 203.363 23.7672C203.886 24.0933 204.364 24.4327 204.873 24.602C205.377 24.788 205.905 24.738 206.341 24.5311C207.219 24.0866 207.792 23.3135 208.299 22.7055C208.798 22.075 209.216 21.5204 209.588 21.0934C209.957 20.6631 210.284 20.3678 210.515 20.1827C210.754 20.005 210.888 19.9291 210.894 19.9383Z" fill="#455A64"/>
<path d="M7.15314 203.471C7.15314 203.471 2.84553 214.951 1.33683 218.032C-0.17188 221.112 1.33683 254.296 1.33683 254.296H99.4995L100.886 225.111L53.6278 196.618L7.15314 203.471Z" fill="#263238"/>
<path d="M215.777 157L254.415 164.293C254.415 164.293 253.681 181.003 254.171 180.587C254.662 180.17 200.014 180.074 200.014 180.074L215.777 157Z" fill="#AE7461"/>
<path d="M253.731 164.254L280.513 172.521L292.274 180.789L302.754 192.083C302.754 192.083 302.638 195.228 298.679 193.248C294.72 191.268 290.877 187.542 290.877 187.542L298.679 201.865C298.679 201.865 295.534 205.01 292.972 200.468C290.41 195.926 286.568 190.104 286.568 190.104L284.24 188.358C284.24 188.358 286.685 192.666 286.685 193.831C286.685 194.995 284.24 201.516 284.24 201.516L280.397 206.756C280.397 206.756 278.068 206.523 278.242 204.078C278.417 201.633 279.814 199.886 279.814 199.886L275.157 203.962C275.157 203.962 273.526 203.03 274.924 200.003L276.67 198.14L277.252 195.228L275.855 193.016C275.855 193.016 272.245 193.248 269.45 189.057C266.656 184.865 262.347 185.68 256.292 182.07C250.237 178.461 250.82 174.502 250.82 174.502L253.731 164.254Z" fill="#AE7461"/>
<path d="M268.109 174.462C268.196 174.444 268.183 175.805 269.123 177.687C269.589 178.62 270.282 179.665 271.219 180.683C272.147 181.711 273.303 182.715 274.553 183.732C275.786 184.756 277.072 185.667 277.929 186.846C278.792 188.006 279.104 189.42 278.769 190.499C278.422 191.589 277.586 192.147 277.009 192.312C276.713 192.399 276.471 192.403 276.312 192.39C276.153 192.37 276.074 192.346 276.076 192.332C276.076 192.288 276.417 192.358 276.954 192.152C277.472 191.955 278.204 191.394 278.473 190.416C278.738 189.44 278.431 188.157 277.607 187.084C276.791 185.992 275.524 185.1 274.278 184.068C273.022 183.046 271.855 182.016 270.92 180.95C269.977 179.892 269.288 178.795 268.845 177.818C268.398 176.839 268.203 175.981 268.129 175.388C268.058 174.794 268.086 174.463 268.109 174.462Z" fill="#6F4439"/>
<path d="M290.625 186.91C290.61 186.936 290.354 186.823 289.902 186.596C289.451 186.368 288.807 186.024 288.018 185.584C286.442 184.704 284.291 183.441 281.966 181.964C280.113 180.789 278.428 179.656 277.093 178.723L277.246 178.744C276.049 179.111 275.061 179.405 274.371 179.598C273.68 179.79 273.286 179.882 273.274 179.848C273.263 179.814 273.637 179.657 274.309 179.407C274.981 179.158 275.953 178.816 277.137 178.411L277.215 178.384L277.29 178.433C278.705 179.346 280.383 180.427 282.199 181.598C284.518 183.072 286.64 184.374 288.174 185.32C289.71 186.263 290.656 186.856 290.625 186.91Z" fill="#6F4439"/>
<path d="M284.105 187.365C284.193 187.434 283.376 188.345 281.967 188.708C280.562 189.085 279.402 188.694 279.446 188.591C279.468 188.463 280.571 188.637 281.857 188.288C283.148 187.96 284.023 187.265 284.105 187.365Z" fill="#6F4439"/>
<path d="M279.628 190.114C279.742 190.083 280.526 192.252 281.369 194.998C281.607 195.741 281.404 196.531 281.138 197.092C280.872 197.672 280.583 198.142 280.387 198.557C279.966 199.378 280.02 199.961 279.945 199.966C279.9 199.989 279.731 199.343 280.105 198.436C280.272 197.986 280.54 197.489 280.769 196.934C280.999 196.377 281.151 195.757 280.949 195.11C280.116 192.397 279.511 190.147 279.628 190.114Z" fill="#6F4439"/>
<path d="M4.47517 197.71L38.9169 160.533C38.9169 160.533 84.2364 82.7152 93.2486 75.5419C115.791 57.6018 141.378 66.9951 141.378 66.9951L150.495 63.534L165.857 102.556C165.857 102.556 160.164 110.89 159.595 112.557C159.025 114.225 90.7124 217.573 90.7124 217.573L66.3029 251.756C66.3029 251.756 28.4735 244.675 12.2831 224.01C4.88299 214.565 4.47517 197.71 4.47517 197.71Z" fill="#455A64"/>
<path d="M169.674 101.688L174.726 97.3802L174.783 110.523L183.519 122.862C183.519 122.862 157.95 153.66 152.691 158.793C147.433 163.926 105.363 213.872 105.363 213.872C105.363 213.872 103.138 237.561 100.307 244.273C97.4753 250.985 78.3742 249.219 78.3742 249.219L87.866 222.037L91.8116 202.423L139.544 139.25L158.281 114.721L169.674 101.688Z" fill="#455A64"/>
<path d="M156.888 143.949C156.888 144.733 182.865 169.565 182.865 169.565C182.865 169.565 184.74 174.271 186.883 175.055C189.025 175.839 199.737 180.805 199.737 180.805L216.52 156.757C216.52 156.757 208.04 148.915 205.628 147.608C203.218 146.301 197.417 139.549 197.417 139.549L177.973 116.203L163.047 123.817L156.888 143.949Z" fill="#455A64"/>
<path d="M158.282 114.72C158.275 114.715 158.313 114.636 158.397 114.487C158.497 114.313 158.621 114.098 158.773 113.833C159.135 113.23 159.632 112.403 160.256 111.362C161.581 109.201 163.446 106.156 165.708 102.465L165.902 102.727C161.841 103.81 157.012 105.097 151.772 106.494L151.565 106.549L151.51 106.342C151.031 104.526 150.532 102.631 150.022 100.699C147.605 91.4171 145.419 83.0179 143.823 76.8897C143.058 73.8689 142.435 71.4103 141.993 69.6622C141.793 68.8366 141.634 68.1802 141.516 67.6915C141.412 67.2395 141.365 67.0009 141.379 66.9968C141.393 66.9926 141.47 67.2244 141.601 67.669C141.738 68.1518 141.923 68.8015 142.156 69.6189C142.631 71.3586 143.299 73.8047 144.12 76.8113C145.747 82.9312 147.978 91.3195 150.443 100.588C150.951 102.521 151.448 104.417 151.925 106.232L151.663 106.08C156.91 104.71 161.746 103.448 165.812 102.388L166.243 102.275L166.006 102.649C163.691 106.307 161.781 109.325 160.426 111.466C159.767 112.486 159.243 113.297 158.862 113.888C158.692 114.142 158.553 114.348 158.442 114.515C158.343 114.655 158.29 114.724 158.282 114.72Z" fill="#263238"/>
<path d="M174.78 110.056C174.793 110.072 174.635 110.222 174.328 110.489C173.966 110.792 173.519 111.168 172.978 111.623C171.738 112.63 170.072 113.983 168.097 115.586L167.745 115.872L167.793 115.418C168.06 112.911 168.371 109.985 168.703 106.864C168.805 105.949 168.904 105.05 168.999 104.191L169.36 104.369C166.361 107.219 163.704 109.717 161.788 111.492C160.865 112.336 160.105 113.032 159.518 113.568C158.98 114.049 158.677 114.302 158.658 114.283C158.639 114.264 158.906 113.972 159.412 113.457C159.974 112.897 160.706 112.17 161.592 111.288C163.456 109.457 166.076 106.921 169.063 104.06L169.489 103.653L169.425 104.238C169.332 105.097 169.234 105.997 169.134 106.913C168.781 110.031 168.45 112.955 168.166 115.461L167.862 115.293C169.877 113.739 171.576 112.429 172.841 111.453C173.408 111.031 173.877 110.682 174.255 110.401C174.586 110.16 174.768 110.04 174.78 110.056Z" fill="#263238"/>
<path d="M177.974 128.614C177.986 128.623 177.906 128.744 177.744 128.968C177.547 129.228 177.307 129.547 177.016 129.932C176.378 130.764 175.438 131.955 174.265 133.417C171.918 136.341 168.619 140.335 164.887 144.671C161.152 149.007 157.691 152.863 155.148 155.618C153.877 156.996 152.839 158.102 152.111 158.857C151.773 159.201 151.494 159.486 151.265 159.719C151.068 159.913 150.96 160.01 150.948 159.999C150.937 159.989 151.024 159.873 151.2 159.66C151.412 159.412 151.671 159.11 151.986 158.743C152.722 157.908 153.714 156.782 154.92 155.413C157.403 152.606 160.825 148.722 164.557 144.389C168.287 140.056 171.62 136.095 174.027 133.223C175.202 131.827 176.167 130.679 176.885 129.826C177.201 129.461 177.462 129.16 177.675 128.913C177.86 128.707 177.962 128.604 177.974 128.614Z" fill="#263238"/>
<path d="M204.44 147.736C204.464 147.755 204.235 148.097 203.8 148.699C203.368 149.303 202.719 150.16 201.901 151.207C200.264 153.298 197.917 156.126 195.157 159.097C192.393 162.067 189.744 164.614 187.777 166.399C186.793 167.291 185.984 168 185.414 168.475C184.844 168.952 184.521 169.206 184.501 169.183C184.481 169.161 184.767 168.866 185.301 168.35C185.896 167.778 186.657 167.048 187.567 166.175C189.476 164.336 192.083 161.763 194.838 158.802C197.59 155.839 199.966 153.053 201.662 151.015C202.467 150.044 203.14 149.232 203.667 148.596C204.141 148.025 204.416 147.718 204.44 147.736Z" fill="#263238"/>
<path d="M74.4828 241.215C74.4828 241.215 74.5453 241.097 74.6846 240.878C74.8364 240.645 75.0449 240.324 75.3135 239.912C75.8856 239.052 76.7096 237.812 77.7654 236.224C79.9238 233.015 83.0271 228.402 86.8577 222.709C94.5472 211.305 105.223 195.588 116.882 178.141C128.513 160.665 139.014 144.831 145.967 132.959C149.54 127.081 152.649 122.45 154.979 119.386C156.132 117.847 157.07 116.681 157.725 115.909C158.044 115.535 158.291 115.244 158.472 115.032C158.643 114.836 158.738 114.742 158.738 114.742C158.738 114.742 158.666 114.855 158.507 115.06C158.334 115.279 158.098 115.579 157.794 115.964C157.161 116.753 156.246 117.933 155.115 119.486C152.83 122.577 149.768 127.223 146.229 133.118C139.344 145.03 128.872 160.909 117.243 178.382C105.583 195.831 94.8666 211.521 87.1121 222.881C83.234 228.543 80.0914 233.13 77.9055 236.319C76.8205 237.888 75.974 239.112 75.386 239.962C75.1025 240.363 74.8823 240.676 74.7222 240.903C74.5695 241.113 74.4828 241.215 74.4828 241.215Z" fill="#263238"/>
<path d="M76.3952 199.822C76.3852 199.834 76.2634 199.747 76.039 199.571C75.7797 199.36 75.4611 199.102 75.0733 198.787C74.2384 198.102 73.0542 197.081 71.613 195.796C68.729 193.226 64.8526 189.551 60.801 185.268C56.7528 180.979 53.3034 176.9 50.9014 173.875C49.6997 172.363 48.7481 171.123 48.1109 170.251C47.819 169.846 47.578 169.514 47.3828 169.243C47.2202 169.009 47.1409 168.882 47.1526 168.873C47.1643 168.864 47.2677 168.973 47.452 169.189C47.6647 169.446 47.9266 169.763 48.2443 170.147C48.9691 171.031 49.9482 172.226 51.1391 173.68C53.5978 176.652 57.0764 180.69 61.1154 184.969C65.1578 189.244 68.9917 192.945 71.8182 195.569C73.2026 196.841 74.3402 197.886 75.1825 198.66C75.5478 198.999 75.8489 199.278 76.0941 199.505C76.3018 199.702 76.4052 199.811 76.3952 199.822Z" fill="#263238"/>
<path d="M129.614 79.3391C129.575 79.3633 129.247 78.7945 128.506 77.8813C127.755 76.9831 126.544 75.7579 124.746 74.6737C122.957 73.5762 120.599 72.6838 117.9 72.0091C115.208 71.3319 112.161 70.8298 108.962 70.9649C105.766 71.0984 102.765 71.9224 100.339 73.2559C97.8932 74.5628 96.01 76.2658 94.6431 77.8496C93.2778 79.4467 92.4046 80.9212 91.8575 81.9612C91.3046 83.0012 91.0636 83.6117 91.0219 83.5942C91.0077 83.5884 91.0594 83.4332 91.1703 83.1413C91.2812 82.8494 91.4422 82.4174 91.7066 81.8853C92.2111 80.8145 93.0535 79.2974 94.4087 77.6511C95.7665 76.0173 97.6622 74.2584 100.149 72.904C102.616 71.5221 105.689 70.6664 108.944 70.5313C112.202 70.3937 115.288 70.9166 118 71.6221C120.716 72.3235 123.106 73.2609 124.907 74.4127C126.719 75.5519 127.919 76.8355 128.638 77.7762C128.986 78.2591 129.247 78.6394 129.394 78.9163C129.552 79.1865 129.628 79.3316 129.614 79.3391Z" fill="#263238"/>
<path d="M87.8668 90.4172C87.8668 90.4172 86.3973 141.982 87.8668 166.42C88.3155 173.879 91.0869 178.811 91.6582 178.98C93.1569 179.422 123.437 176.86 123.437 176.86C123.437 176.86 123.68 167.606 125.964 164.135C128.248 160.665 122.394 162.113 122.394 162.113C122.394 162.113 134.898 98.552 133.335 86.8568" fill="#455A64"/>
<path d="M133.336 86.8578C133.336 86.8578 133.416 87.3524 133.482 88.3123C133.519 89.2731 133.541 90.6992 133.434 92.5423C133.256 96.2311 132.699 101.588 131.789 108.287C129.97 121.686 126.782 140.465 122.6 162.154L122.346 161.913C123.115 161.738 123.887 161.614 124.692 161.607C125.093 161.606 125.504 161.634 125.917 161.777C126.121 161.854 126.332 161.971 126.489 162.167C126.648 162.362 126.71 162.623 126.703 162.855C126.667 163.317 126.471 163.698 126.265 164.05C126.052 164.405 125.869 164.713 125.697 165.066C125.376 165.77 125.113 166.511 124.914 167.277C124.106 170.34 123.797 173.596 123.653 176.866L123.645 177.06L123.456 177.075C119.333 177.408 114.978 177.76 110.561 178.117C106.834 178.403 103.151 178.678 99.5161 178.912C97.698 179.024 95.8957 179.141 94.0993 179.206C93.6515 179.228 93.2019 179.238 92.7507 179.238C92.5206 179.234 92.3137 179.258 92.0619 179.227L91.6982 179.195C91.6123 179.227 91.3613 179.054 91.3188 178.981C90.6924 178.238 90.3446 177.431 89.9702 176.617C88.5707 173.341 87.8785 169.877 87.6633 166.477C87.5808 164.783 87.4982 163.106 87.4173 161.448C87.3631 159.79 87.3106 158.151 87.258 156.532C86.9419 143.577 87.0262 131.91 87.1346 122.116C87.2505 112.321 87.429 104.396 87.5741 98.9199C87.6567 96.1928 87.72 94.0719 87.7643 92.6149C87.7926 91.9052 87.8135 91.3597 87.8293 90.9761C87.8468 90.6066 87.8668 90.4181 87.8668 90.4181C87.8668 90.4181 87.876 90.6075 87.8735 90.9778C87.8685 91.3623 87.861 91.9077 87.8518 92.6182C87.8268 94.0752 87.7901 96.1969 87.7434 98.9241C87.6508 104.401 87.5191 112.326 87.4415 122.119C87.3723 131.912 87.3206 143.578 87.6575 156.521C87.7125 158.138 87.7684 159.775 87.8251 161.432C87.9085 163.087 87.9928 164.761 88.077 166.452C88.2922 169.809 88.9836 173.235 90.3597 176.447C90.7124 177.228 91.1003 178.064 91.6223 178.681C91.6574 178.727 91.6865 178.747 91.6991 178.752C91.7016 178.772 91.7449 178.782 91.8025 178.781L92.1035 178.803C92.2945 178.829 92.5347 178.808 92.7507 178.811C93.1928 178.81 93.6364 178.8 94.0843 178.778C95.8707 178.713 97.673 178.594 99.4886 178.483C103.119 178.247 106.802 177.971 110.527 177.685C114.943 177.329 119.298 176.979 123.42 176.647L123.223 176.856C123.372 173.55 123.68 170.291 124.506 167.167C124.71 166.387 124.98 165.623 125.317 164.887C125.658 164.143 126.226 163.512 126.284 162.84C126.301 162.517 126.105 162.291 125.773 162.172C125.446 162.057 125.068 162.025 124.694 162.026C123.943 162.031 123.177 162.152 122.446 162.317L122.132 162.388L122.193 162.075C126.401 140.4 129.642 121.635 131.532 108.253C132.477 101.563 133.075 96.2161 133.296 92.5365C133.424 90.6975 133.425 89.2764 133.411 88.3165C133.404 87.8369 133.358 87.4741 133.35 87.2298C133.334 86.9838 133.336 86.8578 133.336 86.8578Z" fill="#263238"/>
<path d="M123.349 162.433C123.354 162.462 122.888 162.556 122.041 162.699C121.193 162.843 119.964 163.023 118.439 163.207C115.391 163.586 111.161 163.963 106.478 164.164C101.794 164.363 97.5471 164.349 94.478 164.231C92.9434 164.178 91.7024 164.104 90.8467 164.033C89.991 163.963 89.519 163.909 89.5206 163.879C89.5223 163.849 89.9977 163.845 90.855 163.863C91.7891 163.878 93.0109 163.899 94.4854 163.923C97.5504 163.962 101.786 163.928 106.46 163.73C111.132 163.528 115.355 163.201 118.405 162.901C119.872 162.751 121.088 162.627 122.017 162.531C122.871 162.44 123.345 162.403 123.349 162.433Z" fill="#263238"/>
<path d="M91.6582 178.98L109.462 253.924H127.264L122.285 177.072L91.6582 178.98Z" fill="#AE7461"/>
<path d="M125.682 243.32L143.425 246.422L159.398 251.252C160.878 251.756 161.825 252.613 161.232 254.467L109.461 253.923V244.924L125.682 243.32Z" fill="#AE7461"/>
<path d="M154.065 254.392C154.016 254.386 154.137 254.017 154.036 253.379C153.952 252.752 153.413 251.868 152.322 251.473C151.251 251.071 149.801 251.081 148.248 250.892C146.676 250.732 144.963 250.558 143.166 250.375C139.561 249.996 136.301 249.629 133.943 249.341C132.834 249.197 131.9 249.075 131.153 248.978C130.495 248.883 130.133 248.816 130.136 248.786C130.14 248.756 130.508 248.766 131.171 248.81C131.922 248.871 132.86 248.946 133.975 249.036C136.341 249.245 139.607 249.564 143.211 249.943C145.007 250.138 146.718 250.323 148.289 250.494C149.065 250.584 149.806 250.668 150.505 250.748C151.201 250.83 151.866 250.945 152.436 251.187C153.611 251.653 154.171 252.677 154.202 253.356C154.239 253.699 154.189 253.963 154.156 254.136C154.111 254.308 154.08 254.395 154.065 254.392Z" fill="#6F4439"/>
<g opacity="0.3">
<path d="M123.349 192.891L129.614 165.561V157L127.264 155.502L132.77 99.4344L122.396 162.113L123.647 162.006C125.074 161.884 126.848 161.552 126.504 162.942L124.55 167.226L122.384 178.576L123.349 192.891Z" fill="black"/>
</g>
<path d="M182.119 60.9961C180.142 63.0661 179.558 66.0427 181.196 68.3887C181.765 69.2027 182.702 69.7748 183.683 69.9266C184.883 70.1126 186.109 70.0142 187.047 69.1243C187.928 68.2895 188.759 67.3812 189.154 66.2336C187.216 64.6999 184.056 62.5307 182.119 60.9961Z" fill="#6F4439"/>
<path d="M186.411 69.6139C186.42 69.633 186.145 69.8015 185.581 69.9191C185.024 70.0267 184.154 70.0676 183.175 69.7014C182.199 69.3587 181.15 68.523 180.558 67.2645C179.945 66.0243 179.858 64.3755 180.453 62.8977C180.745 62.1437 181.172 61.4698 181.671 60.9019L181.801 60.7543L181.958 60.8702C183.985 62.3714 185.75 63.7008 187 64.6649C188.25 65.629 188.985 66.2286 188.954 66.2703C188.923 66.312 188.131 65.7908 186.837 64.8867C185.542 63.9827 183.746 62.6975 181.706 61.2121L181.992 61.1804C181.528 61.7175 181.131 62.3514 180.859 63.0536C180.306 64.4347 180.375 65.9359 180.921 67.0943C181.452 68.2661 182.388 69.0567 183.288 69.4145C184.19 69.7932 185.014 69.804 185.557 69.7506C186.104 69.6906 186.397 69.5788 186.411 69.6139Z" fill="#263238"/>
</svg>
