<svg width="62" height="62" viewBox="0 0 62 62" fill="none" xmlns="http://www.w3.org/2000/svg">
<g clip-path="url(#clip0_1_178)">
<path d="M56.4781 11.6643H55.771C55.2703 11.6643 54.8646 12.07 54.8646 12.5707C54.8646 13.0715 55.2703 13.4772 55.771 13.4772H56.4781C58.5233 13.4772 60.1871 15.141 60.1871 17.1861V51.8583C60.1871 53.9035 58.5232 55.5673 56.4781 55.5673H5.52187C3.47683 55.5674 1.81287 53.9035 1.81287 51.8583V24.0608C1.81287 23.5601 1.40715 23.1544 0.906433 23.1544C0.405719 23.1544 0 23.5601 0 24.0608V51.8583C0 54.9031 2.4771 57.3802 5.52187 57.3802H56.478C59.5228 57.3802 61.9999 54.9031 61.9999 51.8583V17.1862C62 14.1414 59.5229 11.6643 56.4781 11.6643Z" fill="url(#paint0_linear_1_178)"/>
<path d="M0.906433 21.1045C1.40715 21.1045 1.81287 20.6988 1.81287 20.1981V10.1414C1.81287 8.09622 3.47683 6.43249 5.52187 6.43249H23.2872C23.9214 6.43249 24.5487 6.59638 25.1019 6.90674L35.5563 12.7714C36.3797 13.2333 37.314 13.4774 38.258 13.4774H42.4508C42.9515 13.4774 43.3572 13.0717 43.3572 12.571C43.3572 12.0703 42.9515 11.6645 42.4508 11.6645H38.258C37.624 11.6645 36.9965 11.5007 36.4432 11.1903L25.9889 5.32568C25.1656 4.86388 24.2315 4.61963 23.2872 4.61963H5.52187C2.4771 4.61951 0 7.09661 0 10.1414V20.1981C0 20.6987 0.405719 21.1045 0.906433 21.1045Z" fill="url(#paint1_linear_1_178)"/>
<path d="M25.213 19.5423C27.0464 18.7698 28.9934 18.3782 31 18.3782C33.0767 18.3782 35.0874 18.7976 36.9765 19.6246C37.0949 19.6764 37.2182 19.701 37.3396 19.701C37.6887 19.701 38.0215 19.498 38.1704 19.1578C38.3711 18.6993 38.1623 18.1647 37.7036 17.964C35.5839 17.0359 33.3286 16.5654 31 16.5654C28.7505 16.5654 26.5665 17.005 24.5091 17.8717C24.0478 18.066 23.8314 18.5977 24.0257 19.059C24.22 19.52 24.7514 19.7365 25.213 19.5423Z" fill="url(#paint2_linear_1_178)"/>
<path d="M21.8053 47.2771C24.5375 49.0775 27.717 50.0291 31 50.0291C40.226 50.0291 47.7319 42.5233 47.7319 33.2971C47.7319 31.1798 47.3415 29.116 46.5714 27.163C46.3878 26.6973 45.8617 26.4689 45.3956 26.6521C44.9298 26.8358 44.7013 27.3621 44.8847 27.8279C45.571 29.5683 45.9189 31.4085 45.9189 33.2971C45.9189 41.5235 39.2263 48.2163 30.9999 48.2163C28.0725 48.2163 25.2379 47.368 22.8027 45.7632C22.3847 45.4878 21.8225 45.6033 21.547 46.0214C21.2714 46.4394 21.3872 47.0016 21.8053 47.2771Z" fill="url(#paint3_linear_1_178)"/>
<path d="M18.6851 44.6231C18.8638 44.8173 19.1077 44.9158 19.3523 44.9158C19.5717 44.9158 19.7918 44.8366 19.9658 44.6765C20.3343 44.3375 20.3581 43.764 20.0191 43.3956C17.4794 40.6356 16.0808 37.0493 16.0808 33.2971C16.0808 31.0834 16.555 28.9518 17.4898 26.962C17.7027 26.5089 17.5079 25.969 17.0548 25.7561C16.6019 25.5434 16.0619 25.7381 15.8489 26.191C14.7997 28.4239 14.2679 30.8147 14.2679 33.2971C14.2681 37.5053 15.8367 41.5275 18.6851 44.6231Z" fill="url(#paint4_linear_1_178)"/>
<path d="M31 46.4036C38.2268 46.4036 44.1062 40.5243 44.1062 33.2975C44.1062 32.2224 43.9742 31.1509 43.714 30.1124C43.5923 29.6266 43.1004 29.3321 42.6143 29.4535C42.1287 29.5753 41.8337 30.0675 41.9554 30.5531C42.1796 31.4476 42.2933 32.371 42.2933 33.2975C42.2933 39.5245 37.2271 44.5908 31 44.5908C24.7729 44.5908 19.7067 39.5245 19.7067 33.2975C19.7067 27.0703 24.7729 22.004 31 22.004C32.0926 22.004 33.1748 22.1614 34.2169 22.4716C34.697 22.6138 35.2014 22.3413 35.3444 21.8615C35.4872 21.3816 35.2141 20.877 34.7343 20.7341C33.5241 20.3739 32.2678 20.1912 31 20.1912C23.7732 20.1912 17.8938 26.0705 17.8938 33.2975C17.8938 40.5241 23.7732 46.4036 31 46.4036Z" fill="url(#paint5_linear_1_178)"/>
<path d="M42.3352 17.7046L30.1141 29.6873L28.4754 27.9345C27.9465 27.3691 27.0563 27.3391 26.4909 27.8679L23.6865 30.4895C23.4126 30.7457 23.255 31.0932 23.2423 31.468C23.2297 31.8429 23.3638 32.2003 23.6199 32.474L27.5827 36.7129C27.7701 36.9132 27.9893 37.0937 28.2347 37.249C28.3797 37.341 28.5479 37.3897 28.7197 37.3897H31.3047C31.4767 37.3897 31.645 37.3407 31.7904 37.2486C31.9909 37.1212 32.1752 36.9758 32.3377 36.8165L37.3987 31.8543C37.7561 31.5038 37.7617 30.9299 37.4113 30.5724C37.0607 30.2148 36.4868 30.2096 36.1294 30.5599L31.0684 35.5223C31.0494 35.5408 31.0297 35.5591 31.0092 35.5769H29.0137C28.9756 35.5442 28.94 35.5101 28.9072 35.475L25.2235 31.5346L27.4306 29.4713L29.0757 31.231C29.3362 31.5098 29.6898 31.6678 30.0711 31.6761C30.456 31.686 30.8124 31.5418 31.0845 31.275L43.3127 19.2854L45.428 21.4428L38.8985 27.845C38.5412 28.1955 38.5355 28.7694 38.886 29.1269C39.2366 29.4845 39.8104 29.4897 40.1678 29.1394L46.989 22.4512C47.2569 22.1885 47.4064 21.8374 47.4101 21.4622C47.4137 21.0872 47.2713 20.7333 47.0087 20.4653L44.3212 17.7243C44.0586 17.4564 43.7075 17.3069 43.3322 17.3032C42.9516 17.3021 42.6032 17.4421 42.3352 17.7046Z" fill="url(#paint6_linear_1_178)"/>
<path d="M17.3785 23.3997C17.6241 23.8557 18.0792 24.1393 18.596 24.1579C18.6141 24.1587 18.6324 24.159 18.6505 24.159C19.1497 24.159 19.6042 23.9096 19.8747 23.4842C20.3516 22.7342 20.984 22.1187 21.8079 21.6022C22.2452 21.3279 22.5001 20.8566 22.4897 20.3411C22.4793 19.8311 22.2091 19.3757 21.767 19.1229C20.9044 18.6294 20.2742 18.0268 19.8407 17.2808C19.5818 16.8352 19.1185 16.5678 18.6013 16.5652C18.5988 16.5652 18.5964 16.5652 18.5937 16.5652C18.0797 16.5652 17.6172 16.8276 17.3553 17.2681C16.9161 18.0067 16.3223 18.5951 15.54 19.0675C15.0939 19.3369 14.8244 19.8276 14.8369 20.3482C14.8492 20.8692 15.1295 21.3277 15.5867 21.5751C16.3549 21.9909 16.9412 22.5875 17.3785 23.3997ZM18.9134 18.1946C18.9134 18.1947 18.9133 18.195 18.913 18.1952C18.9131 18.1951 18.9133 18.1948 18.9134 18.1946ZM18.5923 18.6856C19.0577 19.3369 19.6521 19.9067 20.3678 20.3872C19.7075 20.8636 19.1408 21.4154 18.6746 22.0354C18.2154 21.3341 17.6447 20.7518 16.9696 20.2958C17.6069 19.8409 18.15 19.3019 18.5923 18.6856Z" fill="url(#paint7_linear_1_178)"/>
<path d="M48.3691 48.3888C49.3397 48.9138 50.0794 49.6666 50.6307 50.6903C50.8961 51.1834 51.3882 51.4898 51.9468 51.5101C51.9665 51.5108 51.9861 51.5112 52.0057 51.5112C52.5455 51.5112 53.0373 51.2413 53.33 50.7809C53.9268 49.8425 54.717 49.0729 55.7454 48.428C56.2185 48.1315 56.4943 47.6215 56.4831 47.064C56.472 46.5129 56.1801 46.0208 55.7023 45.7476C54.6213 45.1292 53.8301 44.3717 53.2841 43.4324C53.0046 42.9513 52.5037 42.6623 51.9448 42.6594C51.9421 42.6594 51.9393 42.6594 51.9367 42.6594C51.381 42.6594 50.8811 42.943 50.5982 43.4188C50.0542 44.3337 49.2878 45.0937 48.3205 45.6777C47.8377 45.9692 47.546 46.5002 47.5593 47.0635C47.5726 47.6263 47.8754 48.1216 48.3691 48.3888ZM51.9355 44.6965C52.5584 45.6418 53.4015 46.4512 54.4494 47.1096C53.4754 47.7722 52.6618 48.5654 52.0234 49.4745C51.4026 48.4471 50.5912 47.6205 49.6042 47.0099C50.5486 46.381 51.3304 45.6051 51.9355 44.6965Z" fill="url(#paint8_linear_1_178)"/>
<path d="M45.4394 11.8593C46.41 12.3844 47.1497 13.1373 47.701 14.161C47.9665 14.654 48.4585 14.9604 49.0171 14.9806C49.0368 14.9813 49.0564 14.9817 49.076 14.9817C49.6157 14.9817 50.1076 14.7117 50.4003 14.2514C50.9971 13.313 51.7873 12.5434 52.8157 11.8985C53.2888 11.602 53.5646 11.092 53.5534 10.5345C53.5423 9.98336 53.2504 9.49134 52.7726 9.21809C51.6916 8.59966 50.9004 7.84224 50.3544 6.90293C50.0749 6.4218 49.574 6.13283 49.0151 6.12993C48.4602 6.1257 47.9527 6.41116 47.6683 6.88928C47.1244 7.80417 46.358 8.56424 45.3907 9.14823C44.9078 9.43974 44.6162 9.97079 44.6295 10.5341C44.643 11.0971 44.9458 11.5923 45.4394 11.8593ZM49.0056 8.16699C49.6285 9.11233 50.4716 9.92172 51.5196 10.5802C50.5456 11.2427 49.7319 12.036 49.0936 12.945C48.4728 11.9177 47.6613 11.0913 46.6744 10.4806C47.6189 9.8515 48.4007 9.07559 49.0056 8.16699Z" fill="url(#paint9_linear_1_178)"/>
</g>
<defs>
<linearGradient id="paint0_linear_1_178" x1="30.9999" y1="11.6643" x2="30.9999" y2="54.4116" gradientUnits="userSpaceOnUse">
<stop stop-color="#B73BBE"/>
<stop offset="1" stop-color="#992E9D"/>
</linearGradient>
<linearGradient id="paint1_linear_1_178" x1="21.6786" y1="4.61963" x2="21.6786" y2="20.0341" gradientUnits="userSpaceOnUse">
<stop stop-color="#B73BBE"/>
<stop offset="1" stop-color="#992E9D"/>
</linearGradient>
<linearGradient id="paint2_linear_1_178" x1="31.1005" y1="16.5654" x2="31.1005" y2="19.4974" gradientUnits="userSpaceOnUse">
<stop stop-color="#B73BBE"/>
<stop offset="1" stop-color="#992E9D"/>
</linearGradient>
<linearGradient id="paint3_linear_1_178" x1="34.5646" y1="26.5889" x2="34.5646" y2="48.507" gradientUnits="userSpaceOnUse">
<stop stop-color="#B73BBE"/>
<stop offset="1" stop-color="#992E9D"/>
</linearGradient>
<linearGradient id="paint4_linear_1_178" x1="17.2632" y1="25.6699" x2="17.2632" y2="43.666" gradientUnits="userSpaceOnUse">
<stop stop-color="#B73BBE"/>
<stop offset="1" stop-color="#992E9D"/>
</linearGradient>
<linearGradient id="paint5_linear_1_178" x1="31" y1="20.1912" x2="31" y2="44.7015" gradientUnits="userSpaceOnUse">
<stop stop-color="#B73BBE"/>
<stop offset="1" stop-color="#992E9D"/>
</linearGradient>
<linearGradient id="paint6_linear_1_178" x1="35.3258" y1="17.3032" x2="35.3258" y2="36.0853" gradientUnits="userSpaceOnUse">
<stop stop-color="#B73BBE"/>
<stop offset="1" stop-color="#992E9D"/>
</linearGradient>
<linearGradient id="paint7_linear_1_178" x1="18.6632" y1="16.5652" x2="18.6632" y2="23.6659" gradientUnits="userSpaceOnUse">
<stop stop-color="#B73BBE"/>
<stop offset="1" stop-color="#992E9D"/>
</linearGradient>
<linearGradient id="paint8_linear_1_178" x1="52.0212" y1="42.6594" x2="52.0212" y2="50.9364" gradientUnits="userSpaceOnUse">
<stop stop-color="#B73BBE"/>
<stop offset="1" stop-color="#992E9D"/>
</linearGradient>
<linearGradient id="paint9_linear_1_178" x1="49.0914" y1="6.12988" x2="49.0914" y2="14.4069" gradientUnits="userSpaceOnUse">
<stop stop-color="#B73BBE"/>
<stop offset="1" stop-color="#992E9D"/>
</linearGradient>
<clipPath id="clip0_1_178">
<rect width="62" height="62" fill="white"/>
</clipPath>
</defs>
</svg>
