<svg width="7" height="7" viewBox="0 0 7 7" fill="none" xmlns="http://www.w3.org/2000/svg">
<g clip-path="url(#clip0_1_270)">
<path d="M2.56247 6.83566C2.36467 6.83478 2.17223 6.77127 2.01276 6.65424C1.8498 6.5396 1.7282 6.37542 1.66604 6.18611C1.60389 5.9968 1.60451 5.79249 1.66781 5.60356L1.97104 4.66562L1.17279 4.08197C1.01274 3.96503 0.893769 3.80046 0.832911 3.61181C0.772054 3.42317 0.772423 3.2201 0.833966 3.03168C0.895509 2.84325 1.01507 2.67912 1.17555 2.56277C1.33603 2.44641 1.52919 2.38379 1.72742 2.38387H2.70449L3.00124 1.45863C3.06215 1.26916 3.18161 1.10391 3.34244 0.986674C3.50326 0.86944 3.69715 0.806274 3.89616 0.806274C4.09518 0.806274 4.28907 0.86944 4.44989 0.986674C4.61071 1.10391 4.73018 1.26916 4.79108 1.45863L5.08887 2.38387H6.06595C6.26415 2.38385 6.45728 2.4465 6.61771 2.56288C6.77815 2.67926 6.89767 2.84339 6.95918 3.0318C7.02069 3.22021 7.02104 3.42325 6.96017 3.61188C6.89931 3.8005 6.78035 3.96504 6.62032 4.08197L5.82233 4.66562L6.12556 5.60356C6.1867 5.79276 6.18625 5.99647 6.12428 6.1854C6.06231 6.37433 5.94202 6.53874 5.7807 6.65497C5.61939 6.77121 5.42536 6.83328 5.22653 6.83226C5.0277 6.83125 4.83432 6.7672 4.6742 6.64932L3.89668 6.07759L3.11917 6.64958C2.95829 6.76957 2.76316 6.83479 2.56247 6.83566ZM1.72742 3.16139C1.69321 3.16138 1.65987 3.17219 1.63217 3.19227C1.60448 3.21235 1.58384 3.24067 1.5732 3.27318C1.56256 3.3057 1.56248 3.34074 1.57295 3.37331C1.58342 3.40587 1.60393 3.4343 1.63152 3.45451L2.65681 4.20378C2.72283 4.25205 2.77194 4.31991 2.79716 4.39771C2.82238 4.47551 2.82242 4.55929 2.79728 4.63711L2.40852 5.84226C2.39773 5.87495 2.39762 5.91022 2.4082 5.94298C2.41879 5.97574 2.43951 6.00428 2.46739 6.02448C2.49526 6.04468 2.52884 6.05549 2.56326 6.05534C2.59769 6.0552 2.63117 6.04411 2.65888 6.02368L3.6668 5.28219C3.73357 5.23306 3.8143 5.20656 3.8972 5.20656C3.9801 5.20656 4.06083 5.23306 4.1276 5.28219L5.13552 6.02342C5.16319 6.04404 5.19673 6.05529 5.23123 6.05552C5.26574 6.05575 5.29942 6.04495 5.32737 6.02471C5.35531 6.00446 5.37606 5.97581 5.38658 5.94295C5.39711 5.91008 5.39686 5.87472 5.38588 5.842L4.99713 4.63685C4.97198 4.55903 4.97202 4.47526 4.99724 4.39745C5.02246 4.31965 5.07158 4.25179 5.1376 4.20352L6.16262 3.45425C6.1902 3.43405 6.21069 3.40565 6.22117 3.37311C6.23165 3.34057 6.23159 3.30555 6.22098 3.27305C6.21038 3.24055 6.18978 3.21223 6.16213 3.19213C6.13447 3.17203 6.10117 3.16118 6.06699 3.16113H4.80378C4.72144 3.16111 4.64124 3.13495 4.57473 3.08641C4.50821 3.03788 4.45883 2.96948 4.43369 2.89107L4.05219 1.69603C4.04168 1.66332 4.02106 1.6348 3.9933 1.61456C3.96554 1.59432 3.93207 1.58341 3.89772 1.58341C3.86337 1.58341 3.8299 1.59432 3.80214 1.61456C3.77438 1.6348 3.75376 1.66332 3.74325 1.69603L3.3589 2.89133C3.3338 2.96961 3.28453 3.03792 3.21818 3.08644C3.15182 3.13496 3.07179 3.1612 2.98958 3.16139H1.72742Z" fill="#FFA239"/>
</g>
<defs>
<clipPath id="clip0_1_270">
<rect width="6.22012" height="6.22012" fill="white" transform="translate(0.786621 0.761353)"/>
</clipPath>
</defs>
</svg>
