<svg width="22" height="23" viewBox="0 0 22 23" fill="none" xmlns="http://www.w3.org/2000/svg">
<g clip-path="url(#clip0_1_141)">
<path d="M21.0828 1.41906C20.3248 0.650465 19.2195 0.335334 18.1701 0.588685L4.15812 3.53351C1.4972 3.92726 -0.340698 6.40358 0.0530541 9.06446C0.20613 10.099 0.688126 11.0567 1.42773 11.7961L2.92991 13.2992C3.00024 13.3686 3.03955 13.4634 3.03899 13.5623V16.3339C3.04101 18.0581 4.43828 19.4554 6.16254 19.4574H8.93414C9.03308 19.4574 9.12803 19.4966 9.1981 19.5665L10.7003 21.0687C11.6086 21.983 12.8439 22.4976 14.1327 22.4985C14.6647 22.498 15.1931 22.411 15.6972 22.2409C17.4368 21.6632 18.7009 20.1525 18.9628 18.3383L21.9077 4.37033C22.1722 3.30993 21.8588 2.18861 21.0828 1.41906ZM2.86121 7.67531C3.11031 6.90572 3.7825 6.35 4.58522 6.25012C4.61761 6.24582 4.64966 6.24032 4.68145 6.23362L16.8915 3.66734L5.78864 14.7638V13.5622C5.79066 12.7333 5.46053 11.9381 4.87212 11.3543L3.37174 9.8521C2.79385 9.28688 2.59485 8.43854 2.86121 7.67531ZM16.2628 17.8195C16.2554 17.8516 16.2509 17.8837 16.2463 17.9158C16.0871 19.0768 15.0169 19.8889 13.856 19.7297C13.3973 19.6668 12.9718 19.4556 12.6443 19.1284L11.143 17.6271C10.5589 17.0385 9.7634 16.7084 8.93418 16.7105H7.73261L18.8328 5.60765L16.2628 17.8195Z" fill="#FCF5FE"/>
</g>
<defs>
<clipPath id="clip0_1_141">
<rect width="22" height="22" fill="white" transform="translate(0 0.5)"/>
</clipPath>
</defs>
</svg>
