<svg width="20" height="21" viewBox="0 0 20 21" fill="none" xmlns="http://www.w3.org/2000/svg">
<g clip-path="url(#clip0_1_144)">
<path d="M10 0.5C8.02219 0.5 6.08879 1.08649 4.4443 2.1853C2.79981 3.28412 1.51809 4.8459 0.761209 6.67317C0.00433286 8.50043 -0.193701 10.5111 0.192152 12.4509C0.578004 14.3907 1.53041 16.1725 2.92894 17.5711C4.32746 18.9696 6.10929 19.922 8.0491 20.3079C9.98891 20.6937 11.9996 20.4957 13.8268 19.7388C15.6541 18.9819 17.2159 17.7002 18.3147 16.0557C19.4135 14.4112 20 12.4778 20 10.5C19.9971 7.84872 18.9426 5.30684 17.0679 3.4321C15.1932 1.55736 12.6513 0.502868 10 0.5V0.5ZM10 18C8.51664 18 7.0666 17.5601 5.83323 16.736C4.59986 15.9119 3.63857 14.7406 3.07091 13.3701C2.50325 11.9997 2.35473 10.4917 2.64411 9.03682C2.9335 7.58197 3.64781 6.24559 4.6967 5.1967C5.7456 4.14781 7.08197 3.4335 8.53683 3.14411C9.99168 2.85472 11.4997 3.00325 12.8701 3.5709C14.2406 4.13856 15.4119 5.09985 16.236 6.33322C17.0601 7.56659 17.5 9.01664 17.5 10.5C17.4978 12.4884 16.7069 14.3948 15.3009 15.8009C13.8948 17.2069 11.9885 17.9978 10 18Z" fill="#992E9D"/>
<path d="M10.0043 16.3335C10.6947 16.3335 11.2543 15.7739 11.2543 15.0835C11.2543 14.3931 10.6947 13.8335 10.0043 13.8335C9.31398 13.8335 8.75433 14.3931 8.75433 15.0835C8.75433 15.7739 9.31398 16.3335 10.0043 16.3335Z" fill="#992E9D"/>
<path d="M10.631 4.65544C10.1213 4.56405 9.59771 4.58556 9.09719 4.71845C8.59667 4.85134 8.13138 5.09237 7.73411 5.42457C7.33683 5.75677 7.01725 6.17205 6.79786 6.64114C6.57848 7.11024 6.46464 7.62174 6.46436 8.1396C6.46436 8.47112 6.59605 8.78906 6.83047 9.02348C7.06489 9.2579 7.38283 9.3896 7.71435 9.3896C8.04587 9.3896 8.36382 9.2579 8.59824 9.02348C8.83266 8.78906 8.96435 8.47112 8.96435 8.1396C8.96511 7.95621 9.01434 7.77629 9.10707 7.61806C9.19979 7.45984 9.3327 7.32895 9.49232 7.23867C9.65195 7.14838 9.83261 7.10191 10.016 7.10396C10.1994 7.10601 10.3789 7.15652 10.5365 7.25036C10.6941 7.34419 10.824 7.47803 10.9132 7.63828C11.0023 7.79854 11.0475 7.97952 11.0442 8.16288C11.0408 8.34624 10.989 8.52545 10.8941 8.68235C10.7991 8.83924 10.6644 8.96824 10.5035 9.05626C9.98787 9.27222 9.54967 9.6392 9.24654 10.1089C8.94341 10.5786 8.78955 11.1291 8.80518 11.6879C8.80518 12.0194 8.93688 12.3374 9.1713 12.5718C9.40572 12.8062 9.72366 12.9379 10.0552 12.9379C10.3867 12.9379 10.7046 12.8062 10.9391 12.5718C11.1735 12.3374 11.3052 12.0194 11.3052 11.6879C11.3044 11.6271 11.3089 11.5663 11.3185 11.5063C11.4352 11.3997 11.5676 11.3118 11.711 11.2454C12.3512 10.8926 12.8664 10.3502 13.186 9.69282C13.5055 9.03542 13.6137 8.29521 13.4958 7.57384C13.3778 6.85247 13.0394 6.1853 12.5271 5.66395C12.0147 5.14261 11.3536 4.79264 10.6343 4.6621L10.631 4.65544Z" fill="#992E9D"/>
</g>
<defs>
<clipPath id="clip0_1_144">
<rect width="20" height="20" fill="white" transform="translate(0 0.5)"/>
</clipPath>
</defs>
</svg>
