<svg width="24" height="24" viewBox="0 0 24 24" fill="none" xmlns="http://www.w3.org/2000/svg">
<g clip-path="url(#clip0_1_110)">
<path d="M21.3964 10.1592H22.1208V13.4752H21.3964V10.1592Z" fill="#1B81A5"/>
<path d="M18.2745 10.0647H5.72553L4.63056 16.2921C4.59046 16.5201 4.74646 16.7356 4.97534 16.7695C5.92896 16.9105 8.44006 17.4113 11.8178 19.0713C11.9328 19.1277 12.0672 19.1277 12.1822 19.0713C15.5599 17.4113 18.071 16.9105 19.0247 16.7695C19.2535 16.7356 19.4095 16.5201 19.3694 16.2921L18.2745 10.0647Z" fill="#33393A"/>
<path d="M19.3694 16.2921L18.2745 10.0647H15.4283L16.6998 17.2955C17.7742 16.9835 18.5739 16.8361 19.0247 16.7695C19.2535 16.7356 19.4095 16.5201 19.3694 16.2921Z" fill="#2A2F33"/>
<path d="M11.9396 4.88654L0.103622 9.57953C-0.0346222 9.63428 -0.0346222 9.82983 0.103622 9.88458L11.9396 14.5776C11.9784 14.593 12.0216 14.593 12.0604 14.5776L23.8963 9.88458C24.0346 9.82983 24.0346 9.63446 23.8963 9.57971L12.0604 4.88654C12.0216 4.87115 11.9784 4.87115 11.9396 4.88654Z" fill="#464C50"/>
<path d="M23.8965 9.57965L20.4664 8.21973L10.0863 12.3356C9.90782 12.4062 9.70878 12.4062 9.53026 12.3356L1.34178 9.08874L0.103622 9.57965C-0.0346222 9.6344 -0.0346222 9.82996 0.103622 9.8847L8.18535 13.0892L11.9396 14.5777C11.9784 14.5931 12.0216 14.5931 12.0604 14.5777L23.8963 9.8847C24.0346 9.82996 24.0346 9.6344 23.8965 9.57965Z" fill="#2A2F33"/>
<path d="M21.0289 13.3357V14.3633L20.6554 17.9467C20.6433 18.0609 20.733 18.1603 20.8478 18.1603H22.6694C22.7844 18.1603 22.8737 18.0609 22.8618 17.9467L22.4883 14.3633V13.3357C22.4883 13.1685 22.3528 13.0332 22.1858 13.0332H21.3314C21.1644 13.0332 21.0289 13.1687 21.0289 13.3357Z" fill="#FCB038"/>
<path d="M21.0289 13.3357V14.3633H22.4883V13.3357C22.4883 13.1685 22.3528 13.0332 22.1858 13.0332H21.3314C21.1644 13.0332 21.0289 13.1687 21.0289 13.3357Z" fill="#F3E8D7"/>
</g>
<defs>
<clipPath id="clip0_1_110">
<rect width="24" height="24" fill="white"/>
</clipPath>
</defs>
</svg>
