<svg width="62" height="62" viewBox="0 0 62 62" fill="none" xmlns="http://www.w3.org/2000/svg">
<g clip-path="url(#clip0_1_157)">
<path d="M48.851 40.5058L45.2123 39.4374L37.2957 34.2665V33.0818C39.5877 31.3529 41.1617 28.7103 41.4543 25.6811C42.6038 25.4961 43.4845 24.4972 43.4845 23.2964V20.0384C43.4845 20.0258 43.4832 20.0134 43.4826 20.0008V15.8737C43.9406 15.5458 44.2312 15.0117 44.2312 14.4125V10.6356L49.6946 9.70497C50.5925 9.55203 51.2382 8.83891 51.3016 7.93034C51.3648 7.02177 50.8244 6.22594 49.9565 5.94997L31.5385 0.0916982C31.1542 -0.0306064 30.7482 -0.0304854 30.3641 0.0915771L11.9459 5.94997C11.078 6.22594 10.5375 7.02177 10.6008 7.93022C10.641 8.50747 10.9168 9.00517 11.3426 9.33115V14.2702H11.2976C10.2604 14.2702 9.41661 15.114 9.41661 16.1511V18.6028L8.20241 25.7294C7.99255 26.962 8.94193 28.0903 10.1952 28.0903H14.3063C15.5568 28.0903 16.5094 26.9647 16.2991 25.7293L15.0849 18.6028V16.1511C15.0849 15.114 14.2411 14.2702 13.2039 14.2702H13.159V9.86687L17.6751 10.6361V14.4125C17.6751 15.0091 17.9644 15.5424 18.4202 15.8708L18.4219 20.0387V23.2964C18.4219 24.4973 19.3026 25.4961 20.4521 25.6811C20.7446 28.7086 22.3169 31.35 24.6067 33.079V34.2693L16.6918 39.4392L13.056 40.5064C9.16534 41.6483 6.41821 45.2202 6.41821 49.3723V52.0789C6.41821 52.5805 6.82472 52.9871 7.32641 52.9871C7.82811 52.9871 8.23462 52.5806 8.23462 52.0789V49.3723C8.23462 46.0998 10.4275 43.1707 13.5676 42.2492L16.9553 41.2547L30.4895 49.2969C30.7642 49.4602 31.1278 49.4689 31.4173 49.2969L44.9523 41.2542L48.3397 42.2487C51.4793 43.1704 53.6721 46.0994 53.6721 49.3716V58.1434C53.6721 59.2685 52.7568 60.1839 51.6317 60.1839H47.6287V56.2691C47.6287 55.7676 47.2222 55.3609 46.7205 55.3609C46.2189 55.3609 45.8123 55.7675 45.8123 56.2691V60.1839H16.0901V56.2691C16.0901 55.7676 15.6836 55.3609 15.1819 55.3609C14.6802 55.3609 14.2737 55.7675 14.2737 56.2691V60.1839H10.2748C9.14972 60.1839 8.23438 59.2685 8.23438 58.1434V56.3244C8.23438 55.8228 7.82786 55.4162 7.32617 55.4162C6.82448 55.4162 6.41797 55.8227 6.41797 56.3244V58.1433C6.41797 60.27 8.14804 62 10.2747 62H51.6315C53.7581 62 55.4882 60.27 55.4882 58.1433V49.3715C55.4882 45.3173 52.8348 41.6754 48.851 40.5058ZM14.3061 26.2739H10.1952C10.0682 26.2739 9.97134 26.1604 9.9929 26.0343L11.0912 19.5878H13.4102L14.5085 26.0342C14.5299 26.16 14.4338 26.2739 14.3061 26.2739ZM13.2685 16.1511V17.7715H11.2328V16.1511C11.2328 16.1154 11.2617 16.0865 11.2974 16.0865H13.2037C13.2395 16.0864 13.2685 16.1154 13.2685 16.1511ZM27.705 45.1887L28.0665 45.7443L18.7945 40.2349L24.6798 36.3908C24.9466 39.5222 25.9788 42.5357 27.705 45.1887ZM27.6987 41.2683C29.8364 41.572 32.0687 41.5722 34.2075 41.2683C33.7942 42.2852 33.2849 43.2666 32.6788 44.1983L30.9531 46.8507L29.2274 44.1983C28.6214 43.2666 28.112 42.2852 27.6987 41.2683ZM34.2012 45.1887C35.9274 42.5357 36.9596 39.5222 37.2264 36.3908L43.1117 40.2348L33.8398 45.7443L34.2012 45.1887ZM39.5137 16.2119H41.6663V19.1301H40.5979C40.0001 19.1301 39.5136 18.6437 39.5136 18.0459V16.2119H39.5137ZM12.4964 7.68089L30.9149 1.82237C30.9385 1.81486 30.9639 1.81474 30.9879 1.82249L49.4063 7.68089C49.4443 7.693 49.4965 7.70946 49.4898 7.80404C49.4831 7.89849 49.4293 7.90757 49.3898 7.91435L43.3002 8.95152L41.014 8.66877C40.5165 8.60713 40.0629 8.96097 40.0013 9.45866C39.9398 9.95648 40.2935 10.4099 40.7912 10.4714L42.415 10.6723V14.3957L19.4914 14.3948V10.6721L28.8891 9.50928C30.2579 9.34011 31.6457 9.34011 33.0136 9.50928L36.5704 9.94921C37.0681 10.0109 37.5216 9.65714 37.5833 9.15944C37.6449 8.66162 37.2912 8.20825 36.7935 8.14661L33.2366 7.70668C31.7209 7.5191 30.183 7.5191 28.6662 7.70668L18.604 8.95177L12.5126 7.91435C12.4731 7.90757 12.4193 7.89849 12.4126 7.80404C12.4061 7.70946 12.4582 7.69287 12.4964 7.68089ZM20.2377 19.1301L20.2365 16.2119H22.3925V18.046C22.3925 18.6437 21.9062 19.1302 21.3083 19.1302L20.2377 19.1301ZM22.2366 25.2143C22.1898 24.4748 21.5752 23.8955 20.8373 23.8955C20.5069 23.8955 20.238 23.6266 20.238 23.2963V20.9465H21.3083C22.9075 20.9465 24.2088 19.6453 24.2088 18.046V16.2119H37.6973V18.046C37.6973 19.6453 38.9986 20.9465 40.5979 20.9465H41.6681V23.2963C41.6681 23.6266 41.3993 23.8955 41.0688 23.8955C40.331 23.8955 39.7163 24.4748 39.6696 25.2144C39.3803 29.8001 35.5516 33.3924 30.953 33.3924C26.3545 33.3924 22.5259 29.8001 22.2366 25.2143ZM30.9531 35.2086C32.5684 35.2086 34.1036 34.8393 35.4794 34.1826V34.7582C35.4794 36.311 35.2699 37.8427 34.8665 39.32C32.3984 39.7906 29.608 39.8096 27.0397 39.32C26.6364 37.8428 26.4269 36.3111 26.4269 34.7582C26.4269 34.7389 26.4242 34.7201 26.423 34.7011C26.4228 34.6974 26.4231 34.6936 26.4229 34.6899V34.1808C27.7996 34.8386 29.3363 35.2086 30.9531 35.2086Z" fill="url(#paint0_linear_1_157)"/>
</g>
<defs>
<linearGradient id="paint0_linear_1_157" x1="30.9531" y1="0" x2="30.9531" y2="57.9741" gradientUnits="userSpaceOnUse">
<stop stop-color="#B73BBE"/>
<stop offset="1" stop-color="#992E9D"/>
</linearGradient>
<clipPath id="clip0_1_157">
<rect width="62" height="62" fill="white"/>
</clipPath>
</defs>
</svg>
