<svg width="179" height="311" viewBox="0 0 179 311" fill="none" xmlns="http://www.w3.org/2000/svg">
<path d="M41.471 75.2059H0.805992V155.812H41.471V75.2059Z" fill="#FFF4C5"/>
<path d="M86.9715 75.2059H43.0339V155.812H86.9715V75.2059Z" fill="#FFF4C5"/>
<path d="M86.9715 161.444H43.0339V239.327H86.9715V161.444Z" fill="#FFF4C5"/>
<path d="M92.6027 73.8114H138.874V2.30676H140.438V73.8114H178.094V0.72049H92.6027V73.8114Z" fill="#FFF4C5"/>
<path d="M178.094 75.2059H140.438V155.812H178.094V75.2059Z" fill="#FFF4C5"/>
<path d="M178.094 161.444H140.438V239.327H178.094V161.444Z" fill="#FFF4C5"/>
<path d="M41.471 161.444H0.805992V239.327H41.471V161.444Z" fill="#FFF4C5"/>
<path d="M138.874 161.444H92.6027V239.327H138.874V161.444Z" fill="#FFF4C5"/>
<path d="M41.471 240.721H0.805992V310.903H41.471V240.721Z" fill="#FFF4C5"/>
<path d="M178.094 240.721H140.438V310.903H178.094V240.721Z" fill="#FFF4C5"/>
<path d="M41.471 73.8114V2.30676H43.0339V73.8114H86.9715V0.72049H0.805992V73.8114H41.471Z" fill="#FFF4C5"/>
<path d="M138.874 240.721H92.6027V310.903H138.874V240.721Z" fill="#FFF4C5"/>
<path d="M86.9715 240.721H43.0339V310.903H86.9715V240.721Z" fill="#FFF4C5"/>
<path d="M138.874 75.2059H92.6027V155.812H138.874V75.2059Z" fill="#FFF4C5"/>
</svg>
