<svg width="107" height="148" viewBox="0 0 107 148" fill="none" xmlns="http://www.w3.org/2000/svg">
<path d="M106.876 0.745102H100.096V146.53H106.876V0.745102Z" fill="#FFE985"/>
<path d="M1.73778 1.97025V146.635C1.73778 146.689 1.78115 146.733 1.83536 146.733H98.9672C99.0214 146.733 99.0648 146.688 99.0648 146.635V1.97025C99.0648 1.91604 99.0205 1.87184 98.9672 1.87184H1.83536C1.78115 1.87268 1.73778 1.91688 1.73778 1.97025Z" fill="#FFF4C5"/>
<path d="M100.096 147.86H0.707811C0.653601 147.86 0.610229 147.817 0.610229 147.763V0.84268C0.610229 0.78847 0.654435 0.745102 0.707811 0.745102H100.096C100.15 0.745102 100.193 0.78847 100.193 0.84268V147.763C100.193 147.817 100.149 147.86 100.096 147.86ZM2.96296 145.606H97.8396C97.8938 145.606 97.9372 145.562 97.9372 145.508V3.09782C97.9372 3.04361 97.8938 3.00024 97.8396 3.00024H2.96296C2.90875 3.00024 2.86537 3.04444 2.86537 3.09782V145.507C2.86537 145.562 2.90875 145.606 2.96296 145.606Z" fill="#FFF4C5"/>
<path d="M11.5373 10.9074V137.603C11.5373 137.657 11.5815 137.7 11.6349 137.7H89.3386C89.3929 137.7 89.4362 137.656 89.4362 137.603V10.9074C89.4362 10.8532 89.392 10.8098 89.3386 10.8098H11.6349C11.5806 10.809 11.5373 10.8532 11.5373 10.9074Z" fill="white"/>
<path d="M72.2183 98.0495H28.5851C28.5551 98.0495 28.5317 98.0254 28.5317 97.9962V46.8369C28.5317 46.8069 28.5559 46.7836 28.5851 46.7836H72.2175C72.2467 46.7836 72.2708 46.8078 72.2708 46.8369V97.9962C72.2717 98.0254 72.2475 98.0495 72.2183 98.0495Z" fill="#FFF4C5"/>
<path d="M68.8089 91.7754C68.8648 91.9397 66.7064 92.8854 62.5989 92.4042C60.5765 92.1298 58.0595 91.4026 55.6184 89.6145C53.2298 87.8256 50.9621 84.9399 50.194 81.0835C49.3959 77.2571 50.6761 72.4875 54.3423 69.4208C55.2531 68.6602 56.3131 68.0189 57.4873 67.5777C58.7358 67.114 60.0836 66.9614 61.4222 67.124C62.7532 67.2866 64.1627 67.7495 65.3561 68.8421C66.5613 69.9354 67.221 71.7819 66.9074 73.4249C66.623 75.0837 65.7189 76.3547 64.7473 77.3589C63.7449 78.3822 62.6098 79.1386 61.4522 79.7858C59.1003 81.0852 56.4098 81.9 53.5917 82.0309C50.7853 82.1652 47.8188 81.5889 45.2142 80.1244C42.6346 78.6757 40.4287 76.4798 39.0493 73.7335C37.6507 71.0205 37.2061 67.7278 37.9434 64.7838C38.6531 61.8506 40.3195 59.2277 42.6605 57.4096C43.8356 56.4988 45.1642 55.8266 46.6145 55.413C48.0757 55.0385 49.581 54.9676 51.0664 55.2745C52.5359 55.5831 54.0379 56.3062 55.1071 57.5539C56.1921 58.7907 56.6767 60.4061 56.6909 61.8723C56.7134 63.346 56.3122 64.783 55.6367 65.9864C54.9737 67.1924 54.0821 68.1707 53.1422 68.9847C51.2499 70.5868 49.1265 71.6409 46.9456 72.2773C44.7664 72.9036 42.5321 73.0688 40.4271 72.7802C38.3279 72.4841 36.3513 71.711 34.7533 70.6068C31.5291 68.4192 29.6668 65.0949 29.3349 62.0241C28.9696 58.8966 30.1138 56.332 31.3423 54.6657C32.6058 52.9669 34.0578 52.0978 35.0552 51.6992C36.0769 51.3122 36.659 51.3255 36.6849 51.4231C36.7274 51.5624 36.222 51.7876 35.3939 52.3405C34.5824 52.9035 33.4356 53.8542 32.5065 55.4438C31.5983 57.0034 30.8486 59.2661 31.3239 61.7297C31.7559 64.1842 33.4348 66.8221 36.142 68.4768C38.7916 70.1606 42.5095 70.5943 46.0807 69.4233C47.8496 68.8529 49.6127 67.8988 51.0539 66.6094C52.4842 65.3267 53.4575 63.6763 53.3766 61.949C53.3307 60.2177 52.2398 58.9967 50.3825 58.6414C49.4776 58.4646 48.4626 58.5221 47.5236 58.7757C46.5911 59.0609 45.642 59.5371 44.8256 60.1893C43.1751 61.4878 41.9266 63.4586 41.4228 65.612C40.9058 67.7628 41.2135 70.0438 42.2577 72.1113C43.2852 74.1738 44.9982 75.8919 46.964 77.0036C48.9205 78.1186 51.1982 78.594 53.4391 78.5098C55.6826 78.4289 57.8852 77.7959 59.8067 76.7692C60.7783 76.2446 61.6732 75.6533 62.3479 74.9778C63.0393 74.3014 63.5213 73.5291 63.6373 72.8761C63.7632 72.2156 63.5622 71.6418 63.116 71.1856C62.6473 70.7211 61.8508 70.3699 61.0102 70.2582C60.1653 70.1297 59.2913 70.2098 58.5307 70.4692C57.6942 70.7561 56.9136 71.1931 56.2197 71.7352C54.8319 72.8227 53.7894 74.3123 53.2064 75.886C52.6126 77.4639 52.4733 79.0969 52.6985 80.6531C53.1614 83.7806 54.9228 86.3694 56.866 88.0366C58.8476 89.7129 61.036 90.5752 62.8575 91.0264C66.5596 91.8888 68.7797 91.4626 68.8089 91.7754Z" fill="#FFE985"/>
</svg>
