<svg width="62" height="62" viewBox="0 0 62 62" fill="none" xmlns="http://www.w3.org/2000/svg">
<g clip-path="url(#clip0_1_147)">
<path d="M61.0918 52.5079H59.4849V19.8797C59.4849 17.4899 57.5401 15.5457 55.1497 15.5457H53.0164C53.2496 15.0577 53.3782 14.5164 53.3782 13.9539C53.3782 12.5844 52.6266 11.3352 51.4165 10.6937L39.5409 4.40292C39.0977 4.168 38.5479 4.33705 38.3132 4.78037C38.0784 5.22357 38.2475 5.77322 38.6907 6.00802L50.5661 12.2987C51.1896 12.6292 51.5618 13.248 51.5618 13.9539C51.5618 14.6599 51.1896 15.2786 50.5663 15.6089L39.0222 21.7244L31.683 13.3551C31.3523 12.9779 30.7784 12.9404 30.4013 13.2711C30.0242 13.6018 29.9866 14.1757 30.3173 14.5528L37.3727 22.5983L33.0046 24.9123C31.7494 25.5763 30.2509 25.5763 28.9961 24.9126L11.4339 15.6092C10.8105 15.2787 10.4382 14.6599 10.4382 13.9541C10.4382 13.2482 10.8104 12.6294 11.4337 12.299L28.9955 2.99557C30.2507 2.33149 31.7492 2.33149 33.0039 2.99533L35.5178 4.32736C35.961 4.56228 36.5107 4.39335 36.7455 3.95015C36.9803 3.50695 36.8114 2.95718 36.3683 2.72238L33.8539 1.39011C32.0668 0.444488 29.9329 0.444488 28.1457 1.39023L10.5832 10.694C9.37338 11.3353 8.62187 12.5845 8.62187 13.9541C8.62187 14.5166 8.75048 15.0577 8.9837 15.5458H6.85027C4.45988 15.5458 2.51512 17.49 2.51512 19.8798V52.508H0.908203C0.406633 52.508 0 52.9147 0 53.4162V55.4292C0 58.677 2.64227 61.3194 5.89012 61.3194H56.1098C59.3576 61.3194 62 58.6771 62 55.4292V53.4162C62 52.9145 61.5934 52.5079 61.0918 52.5079ZM38.8125 36.7517L39.9967 38.8027C40.2414 39.2267 40.0782 39.601 39.9967 39.7422C39.9152 39.8834 39.6726 40.2119 39.183 40.2119H38.4418C37.9522 40.2119 37.7098 39.8834 37.6282 39.7422C37.5466 39.6009 37.3835 39.2267 37.6282 38.8027L38.8125 36.7517ZM39.7207 23.41L43.4787 21.4193V25.0258C43.4787 27.616 42.0149 29.9381 39.7207 31.0408V23.41ZM30.9999 27.227C31.9801 27.227 32.9606 26.9905 33.8543 26.5178L37.9043 24.3724V31.7435C32.9421 33.3872 27.4521 33.2026 22.6087 31.1896C20.1257 30.1576 18.5213 27.7382 18.5213 25.0259V21.4191L28.1462 26.5179C29.0396 26.9908 30.0196 27.227 30.9999 27.227ZM4.33152 19.8797C4.33152 18.4915 5.46145 17.3621 6.85027 17.3621H10.863L15.4346 19.784H7.6616C7.16003 19.784 6.7534 20.1906 6.7534 20.6922V49.1783C6.7534 49.6799 7.16003 50.0865 7.6616 50.0865H12.4557C12.9573 50.0865 13.3639 49.6799 13.3639 49.1783C13.3639 48.6767 12.9573 48.2701 12.4557 48.2701H8.5698V21.6004H16.7049V25.0258C16.7049 28.4744 18.7486 31.5521 21.9117 32.8669C24.7995 34.0671 27.8998 34.6673 31.0001 34.6673C33.3317 34.6673 35.6631 34.3276 37.9044 33.6488V34.6919L36.0553 37.8945C35.5571 38.7573 35.5571 39.7876 36.0553 40.6504C36.5535 41.5132 37.4456 42.0283 38.4419 42.0283H39.1832C40.1795 42.0283 41.0716 41.5132 41.5698 40.6504C42.068 39.7876 42.068 38.7573 41.5698 37.8945L39.7207 34.6919V33.0142C39.8435 32.9657 39.9664 32.9176 40.0885 32.8669C43.2514 31.5521 45.2951 28.4744 45.2951 25.0258V21.6004H53.4302V48.2701H16.0885C15.5869 48.2701 15.1803 48.6767 15.1803 49.1783C15.1803 49.6799 15.5869 50.0865 16.0885 50.0865H54.3384C54.84 50.0865 55.2466 49.6799 55.2466 49.1783V20.6922C55.2466 20.1906 54.84 19.784 54.3384 19.784H46.5653L51.1369 17.3621H55.1496C56.5384 17.3621 57.6684 18.4915 57.6684 19.8797V52.5079H4.33152V19.8797ZM36.6163 54.3248C36.2808 55.3014 35.3528 56.0053 34.2638 56.0053H27.7363C26.6472 56.0053 25.7193 55.3014 25.3837 54.3248H36.6163ZM60.1836 55.429C60.1836 57.6753 58.356 59.5029 56.1098 59.5029H5.89012C3.64383 59.5029 1.81641 57.6753 1.81641 55.429V54.3243H3.414C3.41714 54.3243 3.42017 54.3248 3.42332 54.3248H23.51C23.8885 56.3134 25.6391 57.8217 27.7363 57.8217H34.2638C36.3609 57.8217 38.1115 56.3133 38.49 54.3248H58.5767C58.5798 54.3248 58.5829 54.3243 58.586 54.3243H60.1836V55.429Z" fill="url(#paint0_linear_1_147)"/>
<path d="M31.2746 44.9399C31.2746 44.4384 30.868 44.0317 30.3664 44.0317H12.1848C11.6832 44.0317 11.2766 44.4384 11.2766 44.9399C11.2766 45.4415 11.6832 45.8481 12.1848 45.8481H30.3666C30.868 45.8481 31.2746 45.4415 31.2746 44.9399Z" fill="url(#paint1_linear_1_147)"/>
<path d="M12.1848 42.0286H24.3414C24.843 42.0286 25.2496 41.6219 25.2496 41.1204C25.2496 40.6188 24.843 40.2122 24.3414 40.2122H12.1848C11.6832 40.2122 11.2766 40.6188 11.2766 41.1204C11.2766 41.6219 11.6831 42.0286 12.1848 42.0286Z" fill="url(#paint2_linear_1_147)"/>
</g>
<defs>
<linearGradient id="paint0_linear_1_147" x1="31" y1="0.680908" x2="31" y2="57.3818" gradientUnits="userSpaceOnUse">
<stop stop-color="#B73BBE"/>
<stop offset="1" stop-color="#992E9D"/>
</linearGradient>
<linearGradient id="paint1_linear_1_147" x1="21.2756" y1="44.0317" x2="21.2756" y2="45.7302" gradientUnits="userSpaceOnUse">
<stop stop-color="#B73BBE"/>
<stop offset="1" stop-color="#992E9D"/>
</linearGradient>
<linearGradient id="paint2_linear_1_147" x1="18.2631" y1="40.2122" x2="18.2631" y2="41.9106" gradientUnits="userSpaceOnUse">
<stop stop-color="#B73BBE"/>
<stop offset="1" stop-color="#992E9D"/>
</linearGradient>
<clipPath id="clip0_1_147">
<rect width="62" height="62" fill="white"/>
</clipPath>
</defs>
</svg>
