<svg width="62" height="62" viewBox="0 0 62 62" fill="none" xmlns="http://www.w3.org/2000/svg">
<g clip-path="url(#clip0_1_165)">
<path d="M55.9477 46.2605C55.6293 46.2605 55.3168 46.3901 55.0916 46.6154C54.8664 46.8405 54.7368 47.153 54.7368 47.4714C54.7368 47.7899 54.8664 48.1023 55.0916 48.3276C55.3168 48.5528 55.6293 48.6824 55.9477 48.6824C56.2662 48.6824 56.5786 48.5529 56.8039 48.3276C57.0291 48.1022 57.1587 47.7899 57.1587 47.4714C57.1587 47.153 57.0291 46.8405 56.8039 46.6154C56.5786 46.3901 56.2662 46.2605 55.9477 46.2605Z" fill="url(#paint0_linear_1_165)"/>
<path d="M55.2893 21.9725C56.1606 20.4733 56.6162 18.7824 56.6162 17.0193C56.6162 11.5616 52.176 7.12146 46.7183 7.12146C45.8134 7.12146 44.9229 7.2434 44.0595 7.48474C41.1708 2.97897 36.1713 0.219482 30.7795 0.219482C25.8454 0.219482 21.2156 2.52692 18.2381 6.43038C17.562 6.31655 16.8755 6.25891 16.1882 6.25891C9.4257 6.25891 3.92416 11.7606 3.92416 18.5229C3.92416 20.1537 4.23574 21.7259 4.8515 23.209C1.75804 26.3537 0 30.6195 0 35.0479C0 44.3519 7.56933 51.9213 16.8734 51.9213C16.9615 51.9213 17.0496 51.9206 17.138 51.9191C16.7979 54.8767 15.3686 57.6277 13.1066 59.6119C12.7416 59.932 12.6032 60.439 12.7547 60.9003C12.9062 61.3615 13.3185 61.6875 13.8023 61.7288C14.2076 61.7633 14.6117 61.7804 15.0148 61.7804C19.3798 61.7803 23.5622 59.7807 26.3093 56.3646C27.7595 56.7669 29.2594 56.9704 30.7796 56.9704C34.6344 56.9704 38.3581 55.6401 41.3324 53.212C42.3264 53.3835 43.3395 53.4702 44.3523 53.4702C47.0432 53.4702 49.6274 52.8798 52.0329 51.7155C52.6349 51.4241 52.8866 50.6998 52.5953 50.0979C52.3038 49.4958 51.5793 49.2438 50.9777 49.5355C48.904 50.5394 46.6747 51.0483 44.3523 51.0483C43.3042 51.0483 42.2563 50.9409 41.2375 50.729C40.8653 50.6515 40.478 50.7537 40.1921 51.0046C37.5891 53.2899 34.2463 54.5486 30.7796 54.5486C29.2259 54.5486 27.698 54.3004 26.2386 53.811C25.7321 53.6411 25.1737 53.8236 24.865 54.2598C22.9381 56.984 19.9708 58.7627 16.7402 59.2334C18.5851 56.7728 19.6177 53.7636 19.6384 50.6417C19.6407 50.2985 19.4972 49.9705 19.2436 49.7391C18.99 49.5078 18.65 49.3947 18.3088 49.4286C17.832 49.4757 17.3492 49.4994 16.8736 49.4994C8.90487 49.4994 2.42188 43.0166 2.42188 35.0479C2.42188 31.0004 4.13656 27.1116 7.12637 24.3788C7.5267 24.0128 7.63484 23.4252 7.39108 22.9407C6.69757 21.5626 6.34592 20.0763 6.34592 18.523C6.34592 13.0961 10.7611 8.68091 16.1881 8.68091C16.9611 8.68091 17.7326 8.77136 18.4811 8.94986C18.9687 9.06586 19.4776 8.86994 19.7609 8.45628C22.2547 4.81523 26.3737 2.64148 30.7795 2.64148C35.6306 2.64148 40.1066 5.28096 42.4609 9.52977C42.7559 10.0622 43.4005 10.2929 43.9664 10.0685C44.8455 9.72001 45.7714 9.54334 46.7183 9.54334C50.8406 9.54334 54.1943 12.897 54.1943 17.0193C54.1943 18.6633 53.6701 20.2234 52.6784 21.531C52.4784 21.7949 52.3951 22.129 52.4479 22.4559C52.5007 22.7829 52.685 23.0737 52.9579 23.2611C57.1033 26.1069 59.5781 30.8028 59.5781 35.8224C59.5781 38.1689 59.059 40.4189 58.0351 42.5097C57.741 43.1103 57.9895 43.8355 58.5901 44.1298C59.1909 44.4237 59.9161 44.1754 60.2102 43.5747C61.3978 41.1497 62 38.5414 62 35.8224C62 30.4036 59.5119 25.3104 55.2893 21.9725Z" fill="url(#paint1_linear_1_165)"/>
<path d="M34.8904 32.9456C34.8904 32.7278 35.0361 32.5348 35.2705 32.442C39.859 30.6248 42.7892 26.0874 42.562 21.1513C42.4299 18.2801 41.23 15.5716 39.1832 13.5246C37.1362 11.4778 34.4277 10.2777 31.5567 10.1457C28.3668 9.99897 25.3387 11.13 23.0326 13.3324C20.7264 15.5349 19.4563 18.504 19.4563 21.6924C19.4563 22.3611 19.9984 22.9033 20.6672 22.9033H25.9953C26.6641 22.9033 27.2063 22.3611 27.2063 21.6924C27.2063 20.6417 27.625 19.6631 28.3853 18.9369C29.1453 18.2112 30.1441 17.8391 31.2003 17.8874C33.1409 17.9766 34.7311 19.5668 34.8205 21.5075C34.8955 23.1389 33.9296 24.6375 32.4169 25.2366C29.2117 26.506 27.1405 29.5321 27.1405 32.9458V36.8409C27.1405 37.5095 27.6826 38.0518 28.3514 38.0518H33.6796C34.3484 38.0518 34.8905 37.5095 34.8905 36.8409L34.8904 32.9456ZM34.3788 30.1901C33.2183 30.6498 32.4685 31.7314 32.4685 32.9456V35.6298H29.5623V32.9456C29.5623 30.5316 31.0328 28.3895 33.3087 27.4882C35.7825 26.5084 37.3623 24.0601 37.2397 21.3961C37.0934 18.2182 34.4896 15.6143 31.3122 15.4681C29.5896 15.3895 27.9559 15.998 26.7127 17.1855C25.7672 18.0885 25.1446 19.2303 24.9006 20.4815H21.9566C22.2254 18.4266 23.1779 16.5426 24.7054 15.0838C26.5282 13.3427 28.9219 12.4485 31.4451 12.5649C33.7119 12.6692 35.8517 13.6182 37.4706 15.2371C39.0895 16.856 40.0386 18.996 40.1428 21.2628C40.3224 25.166 38.006 28.7537 34.3788 30.1901Z" fill="url(#paint2_linear_1_165)"/>
<path d="M31.0154 40.958C28.8787 40.958 27.1404 42.6963 27.1404 44.833C27.1404 46.9697 28.8787 48.708 31.0154 48.708C33.1521 48.708 34.8904 46.9697 34.8904 44.833C34.8904 42.6963 33.1521 40.958 31.0154 40.958ZM31.0154 46.2861C30.2141 46.2861 29.5623 45.6343 29.5623 44.833C29.5623 44.0317 30.2141 43.3799 31.0154 43.3799C31.8167 43.3799 32.4685 44.0317 32.4685 44.833C32.4685 45.6343 31.8167 46.2861 31.0154 46.2861Z" fill="url(#paint3_linear_1_165)"/>
</g>
<defs>
<linearGradient id="paint0_linear_1_165" x1="55.9477" y1="46.2605" x2="55.9477" y2="48.5251" gradientUnits="userSpaceOnUse">
<stop stop-color="#B73BBE"/>
<stop offset="1" stop-color="#992E9D"/>
</linearGradient>
<linearGradient id="paint1_linear_1_165" x1="31" y1="0.219482" x2="31" y2="57.7829" gradientUnits="userSpaceOnUse">
<stop stop-color="#B73BBE"/>
<stop offset="1" stop-color="#992E9D"/>
</linearGradient>
<linearGradient id="paint2_linear_1_165" x1="31.0153" y1="10.1331" x2="31.0153" y2="36.2389" gradientUnits="userSpaceOnUse">
<stop stop-color="#B73BBE"/>
<stop offset="1" stop-color="#992E9D"/>
</linearGradient>
<linearGradient id="paint3_linear_1_165" x1="31.0154" y1="40.958" x2="31.0154" y2="48.2048" gradientUnits="userSpaceOnUse">
<stop stop-color="#B73BBE"/>
<stop offset="1" stop-color="#992E9D"/>
</linearGradient>
<clipPath id="clip0_1_165">
<rect width="62" height="62" fill="white"/>
</clipPath>
</defs>
</svg>
