<svg width="80" height="150" viewBox="0 0 80 150" fill="none" xmlns="http://www.w3.org/2000/svg">
<path d="M30.719 82.3815L34.3152 76.2599C33.0175 72.4377 32.7256 68.221 33.6923 63.9968C36.4695 51.8495 48.5683 44.2543 60.7155 47.0315C72.8627 49.8088 80.458 61.9076 77.6807 74.0548C74.9035 86.2012 62.8047 93.7972 50.6575 91.02C45.5851 89.8599 41.3117 87.0719 38.2509 83.3364L38.2559 83.3481L30.719 82.3815Z" fill="white"/>
<path d="M30.719 82.3815C30.719 82.3815 30.8675 82.4098 31.1836 82.4565C31.5239 82.5057 31.9951 82.5733 32.6064 82.6609C33.9058 82.8418 35.7931 83.1037 38.2426 83.4448C38.2959 83.4523 38.3451 83.4148 38.3526 83.3614C38.3551 83.3423 38.3518 83.3222 38.3443 83.3064C38.3443 83.3064 38.341 83.2989 38.3393 83.2947L38.1733 83.3981C40.024 85.6766 42.9321 88.3454 47.1422 90.0685C49.2288 90.945 51.6349 91.5138 54.2262 91.6881C56.8141 91.8649 59.603 91.6055 62.3735 90.7548C65.1407 89.91 67.8837 88.4747 70.3048 86.4481C72.7259 84.4273 74.8176 81.8102 76.2721 78.7561C79.2128 72.6862 79.3162 64.7399 75.715 58.2038C73.9211 54.9053 71.3774 52.0798 68.3508 50.1073C65.3484 48.1041 61.9507 46.8764 58.5621 46.4327C55.1661 45.9949 51.7942 46.381 48.7635 47.3593C45.7269 48.3384 43.0297 49.9172 40.8254 51.8287C36.3944 55.6776 34.0183 60.7342 33.3044 65.1894C32.548 69.6838 33.2719 73.5536 34.2243 76.2899L34.2327 76.2107C33.0859 78.2131 32.201 79.7594 31.5914 80.8252C31.3078 81.3265 31.0885 81.7143 30.9292 81.9945C30.7824 82.2555 30.719 82.3815 30.719 82.3815C30.719 82.3815 30.8125 82.2405 30.9751 81.9753C31.1461 81.6943 31.3821 81.3056 31.6881 80.8036C32.3136 79.7652 33.2219 78.259 34.3978 76.3075C34.4128 76.2833 34.4145 76.2532 34.4061 76.2282C33.4979 73.5019 32.8207 69.6696 33.598 65.2394C34.3336 60.8459 36.703 55.8828 41.074 52.1156C43.2482 50.2441 45.9045 48.702 48.8894 47.7496C51.8684 46.798 55.1769 46.4269 58.5079 46.8622C61.8323 47.3043 65.1616 48.5127 68.1031 50.4785C71.0679 52.4142 73.5591 55.1856 75.318 58.419C78.8475 64.8258 78.7533 72.6095 75.8801 78.5709C74.4598 81.5683 72.4132 84.1404 70.0413 86.132C67.6702 88.1294 64.9797 89.548 62.2617 90.3896C59.5412 91.2369 56.7982 91.5046 54.2487 91.3436C51.6966 91.186 49.3197 90.6406 47.2556 89.7891C43.0906 88.1186 40.1899 85.5081 38.326 83.273C38.2918 83.2305 38.23 83.2247 38.1875 83.258C38.1525 83.2864 38.1425 83.3364 38.16 83.3756C38.1617 83.3798 38.165 83.3873 38.165 83.3873L38.2667 83.2488C35.8406 82.9644 33.9708 82.7451 32.6839 82.595C32.0584 82.5241 31.5755 82.4699 31.2278 82.4307C30.8992 82.3948 30.719 82.3815 30.719 82.3815Z" fill="#263238"/>
<path d="M48.158 64.4063H51.5899C51.5899 64.4063 51.5899 61.5248 54.5839 61.4731C56.1394 61.4464 56.945 62.4647 57.2728 63.2453C57.6531 64.1519 57.538 65.1844 57.0284 66.0251C56.4463 66.985 55.1711 67.8574 52.8584 67.4495V75.1866H56.2519V70.6546C56.2519 70.6546 61.0107 69.4245 61.0107 64.1794C61.0107 59.1613 56.5105 57.9962 54.5848 57.9962C53.1119 57.9962 48.0938 58.3523 48.158 64.4063Z" fill="#263238"/>
<path d="M56.2928 76.7812H52.8492V79.9971H56.2928V76.7812Z" fill="#263238"/>
<path d="M79.5564 125.894C77.2287 114.302 65.657 107.607 54.7783 110.739C44.1256 113.807 38.0074 125.462 41.5469 135.967C42.7328 139.487 44.8178 142.449 47.4582 144.688C47.5542 144.77 47.6509 144.842 47.7552 144.913C47.7635 144.919 47.7727 144.925 47.7818 144.931C52.3972 148.081 58.0042 149.613 63.5445 148.891C65.4009 148.649 67.1865 148.181 68.7536 147.435C76.7875 143.615 81.3078 134.616 79.5564 125.894Z" fill="white"/>
<path d="M79.5564 125.894C79.5639 125.892 79.5873 125.997 79.6273 126.205C79.6682 126.434 79.7232 126.739 79.7933 127.127C79.9251 127.94 80.0276 129.157 79.9842 130.725C79.8917 132.288 79.619 134.209 78.8759 136.316C78.1294 138.411 76.9452 140.718 75.0787 142.831C74.1538 143.892 73.0604 144.892 71.8244 145.808C70.5584 146.674 69.1923 147.527 67.6269 148.105C64.5044 149.238 60.8698 149.559 57.1927 148.965C55.3571 148.654 53.5089 148.125 51.7225 147.342C50.8268 146.958 49.9469 146.512 49.0904 146.006C48.6584 145.76 48.2389 145.487 47.8194 145.211C47.3857 144.934 47.0037 144.58 46.6359 144.241C43.6585 141.489 41.4368 137.662 40.6787 133.413C40.2433 131.3 40.2508 129.136 40.5419 127.065C40.6503 126.019 40.943 125.015 41.1983 124.016C41.3701 123.529 41.541 123.044 41.7112 122.561C41.8696 122.073 42.1257 121.628 42.3275 121.162C43.2099 119.339 44.3074 117.645 45.6518 116.225L46.138 115.681L46.6718 115.188C47.0321 114.867 47.3673 114.519 47.7426 114.225C48.5074 113.652 49.243 113.058 50.0645 112.609C53.2512 110.643 56.8349 109.83 60.1359 109.815C60.9657 109.765 61.7747 109.895 62.5712 109.953C63.366 110.031 64.1291 110.234 64.8855 110.364C65.6194 110.589 66.35 110.781 67.0406 111.034C67.7136 111.332 68.4025 111.56 69.0196 111.898C71.5375 113.163 73.5283 114.817 75.0103 116.482C75.7058 117.354 76.3814 118.147 76.8559 118.979C77.3989 119.768 77.7608 120.564 78.1044 121.269C78.2896 121.615 78.4272 121.959 78.5364 122.289C78.654 122.615 78.7649 122.921 78.8675 123.205C79.0952 123.765 79.1861 124.27 79.287 124.669C79.3763 125.053 79.4463 125.355 79.4989 125.582C79.5447 125.786 79.5639 125.892 79.5564 125.894C79.5489 125.895 79.5147 125.792 79.4555 125.589C79.3929 125.366 79.3087 125.069 79.2028 124.69C79.0885 124.297 78.986 123.798 78.7466 123.246C78.6382 122.966 78.5222 122.665 78.3988 122.343C78.2845 122.017 78.142 121.68 77.9526 121.339C77.5999 120.646 77.2312 119.863 76.6833 119.09C76.2046 118.273 75.5257 117.496 74.831 116.643C73.3498 115.013 71.3724 113.4 68.8854 112.173C68.2757 111.843 67.596 111.625 66.9321 111.335C66.2508 111.091 65.531 110.907 64.8088 110.689C64.064 110.566 63.3134 110.371 62.532 110.298C61.7488 110.246 60.9541 110.121 60.1401 110.175C56.9 110.206 53.388 111.017 50.2738 112.952C49.4699 113.392 48.751 113.978 48.0037 114.541C47.6359 114.829 47.309 115.171 46.957 115.486L46.4358 115.97L45.9612 116.505C44.6468 117.897 43.576 119.56 42.7136 121.347C42.5176 121.803 42.2658 122.239 42.1115 122.717C41.9455 123.19 41.7787 123.664 41.6111 124.142C41.3634 125.12 41.0765 126.102 40.9714 127.126C40.6887 129.153 40.6812 131.267 41.1073 133.333C41.8471 137.487 44.018 141.233 46.9278 143.929C47.2973 144.269 47.6518 144.6 48.0579 144.861C48.4691 145.132 48.8802 145.4 49.3047 145.644C50.1454 146.142 51.0094 146.584 51.8893 146.962C53.6432 147.735 55.4571 148.259 57.2594 148.57C60.8665 149.167 64.446 148.862 67.5034 147.767C69.028 147.213 70.3824 146.378 71.6301 145.536C72.8494 144.644 73.9311 143.667 74.8493 142.629C76.7025 140.561 77.8892 138.296 78.6482 136.235C79.4046 134.161 79.699 132.265 79.8166 130.717C79.8858 129.163 79.8116 127.952 79.7082 127.14C79.6565 126.75 79.6156 126.443 79.5856 126.214C79.5589 126.003 79.5489 125.895 79.5564 125.894Z" fill="#263238"/>
<path d="M53.7716 126.148H56.7682C56.7682 126.148 56.7682 123.632 59.3828 123.587C60.7405 123.564 61.4444 124.453 61.7305 125.135C62.0624 125.926 61.9624 126.828 61.517 127.562C61.0091 128.4 59.8949 129.161 57.8757 128.805V135.561H60.8389V131.603C60.8389 131.603 64.9948 130.529 64.9948 125.95C64.9948 121.568 61.065 120.55 59.3828 120.55C58.0968 120.551 53.7149 120.862 53.7716 126.148Z" fill="#263238"/>
<path d="M60.8756 136.954H57.8682V139.763H60.8756V136.954Z" fill="#263238"/>
<path d="M37.0191 129.518C37.0191 131.722 35.2326 133.507 33.03 133.507C30.8266 133.507 29.041 131.721 29.041 129.518C29.041 127.315 30.8275 125.529 33.03 125.529C35.2326 125.529 37.0191 127.315 37.0191 129.518Z" fill="white"/>
<path d="M37.019 129.518C36.9765 129.52 36.9824 129.163 36.8122 128.565C36.6446 127.978 36.2368 127.123 35.3502 126.47C34.4937 125.815 33.0909 125.453 31.739 125.96C30.3979 126.427 29.2428 127.854 29.2578 129.518C29.2428 131.184 30.3979 132.612 31.739 133.078C33.0917 133.586 34.4937 133.224 35.3502 132.568C36.2368 131.914 36.6438 131.06 36.8122 130.473C36.9824 129.874 36.9765 129.517 37.019 129.518C37.0341 129.518 37.0441 129.606 37.0499 129.775C37.0591 129.945 37.0424 130.196 36.9765 130.512C36.8522 131.136 36.4686 132.072 35.537 132.811C34.6372 133.551 33.1084 133.993 31.6031 133.453C30.111 132.962 28.8058 131.376 28.8242 129.517C28.8067 127.659 30.1119 126.075 31.6031 125.584C33.1084 125.044 34.6372 125.485 35.537 126.226C36.4686 126.965 36.8522 127.9 36.9765 128.524C37.0424 128.841 37.0591 129.093 37.0499 129.262C37.0441 129.431 37.0341 129.518 37.019 129.518Z" fill="#263238"/>
<path d="M42.5543 17.1927C40.1549 5.24147 28.2237 -1.66154 17.0072 1.56854C6.02429 4.73107 -0.284084 16.7473 3.3655 27.5793C4.58814 31.2081 6.73821 34.2622 9.46038 36.5715C9.55963 36.6557 9.65885 36.7308 9.76644 36.8042C9.77561 36.81 9.7848 36.8167 9.79398 36.8234C14.5519 40.071 20.3332 41.6497 26.0453 40.9058C27.9593 40.6565 29.8 40.1727 31.4163 39.4046C39.6995 35.4648 44.3599 26.1857 42.5543 17.1927Z" fill="white"/>
<path d="M42.5543 17.1927C42.5618 17.191 42.586 17.2994 42.6269 17.513C42.6686 17.7481 42.7253 18.0626 42.797 18.4637C42.9321 19.3019 43.0381 20.5562 42.9922 22.1733C42.8963 23.7846 42.6152 25.7637 41.8479 27.9363C41.0773 30.0955 39.8572 32.4732 37.9331 34.6517C36.9799 35.745 35.8523 36.7758 34.5788 37.7191C33.2736 38.6115 31.865 39.4905 30.252 40.086C27.0336 41.2544 23.2873 41.5847 19.4967 40.9717C17.6044 40.6506 15.6995 40.1052 13.8589 39.2987C12.9356 38.9034 12.0283 38.443 11.1459 37.9218C10.7005 37.6682 10.2685 37.3872 9.83567 37.1028C9.38948 36.8176 8.99582 36.4523 8.61635 36.1028C5.54723 33.2664 3.25707 29.3224 2.47645 24.9431C2.02775 22.7646 2.03611 20.5354 2.33552 18.4003C2.44728 17.3228 2.74916 16.2878 3.01187 15.2578C3.18868 14.7557 3.36466 14.2562 3.54063 13.7583C3.7041 13.2554 3.96847 12.7967 4.17613 12.3171C5.08603 10.4381 6.21694 8.69089 7.60305 7.22889L8.10429 6.66678L8.6539 6.15888C9.02503 5.82778 9.37031 5.46999 9.75812 5.16642C10.5462 4.57594 11.3043 3.96295 12.1517 3.50091C15.436 1.47512 19.1298 0.636125 22.5325 0.620279C23.3873 0.568571 24.2213 0.702016 25.0428 0.76123C25.8627 0.842128 26.6483 1.05062 27.4281 1.1849C28.1845 1.41675 28.9376 1.61524 29.6498 1.87545C30.3437 2.18236 31.0535 2.41672 31.6898 2.76533C34.2852 4.06804 36.3377 5.77356 37.8656 7.48994C38.5828 8.38815 39.2792 9.20547 39.7688 10.0637C40.3284 10.8768 40.7012 11.6975 41.0565 12.4239C41.2474 12.7808 41.3892 13.1344 41.5018 13.4756C41.6236 13.8108 41.737 14.1261 41.8438 14.4196C42.0789 14.9968 42.1724 15.5172 42.2766 15.9292C42.3692 16.3262 42.4417 16.6373 42.4951 16.8699C42.541 17.0826 42.561 17.1919 42.5543 17.1927C42.5468 17.1944 42.5118 17.0876 42.4509 16.8791C42.3867 16.6498 42.3008 16.3428 42.1907 15.9517C42.0731 15.5455 41.9672 15.031 41.7203 14.4622C41.6086 14.1728 41.4893 13.8625 41.3617 13.5314C41.2433 13.1953 41.0973 12.8467 40.9013 12.4956C40.5377 11.7809 40.1574 10.9736 39.5928 10.1754C39.0991 9.33224 38.3993 8.5316 37.6829 7.65173C36.1559 5.97122 34.1176 4.30657 31.5522 3.04055C30.9234 2.70112 30.2228 2.4751 29.5381 2.17736C28.8358 1.92466 28.0936 1.7345 27.348 1.51016C26.5799 1.38339 25.8059 1.18157 25.0003 1.10651C24.193 1.05313 23.3732 0.923855 22.5333 0.979733C19.1915 1.01142 15.5703 1.84709 12.3577 3.84285C11.5287 4.29738 10.7873 4.9012 10.0167 5.48083C9.63802 5.77857 9.30024 6.13052 8.93745 6.45578L8.39953 6.95451L7.90997 7.50662C6.55472 8.94193 5.44968 10.6575 4.56063 12.4989C4.35797 12.9693 4.09858 13.4188 3.94012 13.9117C3.76832 14.3996 3.59652 14.8892 3.42388 15.3812C3.16785 16.3904 2.8726 17.4037 2.76418 18.4587C2.47228 20.5495 2.46477 22.7304 2.90429 24.8613C3.6674 29.1464 5.90669 33.0087 8.90742 35.7901C9.28856 36.1412 9.65386 36.4823 10.0734 36.7508C10.4979 37.0311 10.9215 37.3079 11.3594 37.5581C12.2259 38.0727 13.1175 38.5272 14.0249 38.9176C15.8338 39.7149 17.7045 40.2553 19.5634 40.5764C23.2831 41.191 26.9752 40.8766 30.1277 39.7474C31.6998 39.1761 33.0968 38.3154 34.3828 37.4464C35.6396 36.5257 36.7555 35.519 37.7021 34.4482C39.6128 32.3156 40.8363 29.9796 41.6194 27.8537C42.3992 25.7145 42.7019 23.7596 42.8229 22.1633C42.8938 20.5612 42.8162 19.3127 42.7094 18.4746C42.6561 18.0717 42.6135 17.7556 42.5827 17.5196C42.5568 17.3061 42.5468 17.1944 42.5543 17.1927Z" fill="#263238"/>
<path d="M15.9698 17.4562H19.0589C19.0589 17.4562 19.0589 14.8625 21.7544 14.8158C23.1547 14.7916 23.8802 15.709 24.1755 16.4113C24.5182 17.2269 24.414 18.1568 23.9553 18.9133C23.4315 19.7773 22.2831 20.5629 20.2006 20.1959V27.1623H23.2556V23.0816C23.2556 23.0816 27.5398 21.974 27.5398 17.2519C27.5398 12.7341 23.4883 11.685 21.7544 11.685C20.4292 11.685 15.9114 12.0052 15.9698 17.4562Z" fill="#263238"/>
<path d="M23.2931 28.5968H20.1931V31.4925H23.2931V28.5968Z" fill="#263238"/>
<path d="M9.03588 44.5521C9.03588 46.8239 7.19441 48.6654 4.92259 48.6654C2.65077 48.6654 0.809296 46.8239 0.809296 44.5521C0.809296 42.2802 2.65077 40.4388 4.92259 40.4388C7.19441 40.4388 9.03588 42.2802 9.03588 44.5521Z" fill="white"/>
<path d="M9.03588 44.5521C8.99334 44.5537 9 44.1859 8.82486 43.5688C8.65222 42.9625 8.23274 42.0801 7.31784 41.4054C6.4338 40.7282 4.98597 40.3537 3.58986 40.8775C2.20458 41.3587 1.01113 42.8324 1.02698 44.5521C1.01113 46.2718 2.20458 47.7463 3.58986 48.2275C4.98681 48.7513 6.43461 48.3768 7.31865 47.6996C8.23272 47.0249 8.65306 46.1417 8.8257 45.5362C9 44.9182 8.99334 44.5504 9.03588 44.5521C9.05089 44.5521 9.06088 44.6421 9.06588 44.8173C9.07422 44.9916 9.05756 45.251 8.98917 45.577C8.86074 46.2201 8.46459 47.1825 7.50465 47.9439C6.57808 48.7054 5.00347 49.1599 3.4539 48.6036C1.9185 48.0974 0.574099 46.4661 0.593281 44.5521C0.575767 42.6389 1.9185 41.0076 3.4539 40.5013C5.00347 39.945 6.57808 40.3996 7.50465 41.161C8.46459 41.9216 8.86074 42.8849 8.98917 43.5279C9.05756 43.854 9.07506 44.1134 9.06588 44.2877C9.06088 44.462 9.05089 44.5521 9.03588 44.5521Z" fill="#263238"/>
</svg>
