<svg width="127" height="123" viewBox="0 0 127 123" fill="none" xmlns="http://www.w3.org/2000/svg">
<path d="M71.3742 53.6976H15.5262C7.47392 53.6976 0.946209 60.2254 0.946209 68.2776V95.853C0.946209 103.905 7.47392 110.433 15.5262 110.433H57.0627L64.2368 122.329L70.9497 110.433H71.3742C79.4264 110.433 85.9542 103.905 85.9542 95.853V68.2776C85.9542 60.2254 79.4264 53.6976 71.3742 53.6976Z" fill="white"/>
<path d="M71.3742 53.6976C71.3742 53.6976 71.4901 53.6935 71.7195 53.6993C71.9605 53.7076 72.2991 53.7201 72.7411 53.736C73.1898 53.7769 73.7444 53.8636 74.4008 53.9695C75.0463 54.1313 75.8027 54.2939 76.615 54.6209C78.2347 55.243 80.1879 56.2897 81.946 58.1262C82.8392 59.0269 83.6365 60.1444 84.3462 61.4096C85.0343 62.6906 85.5472 64.1652 85.8391 65.7673C86.1585 67.3786 86.0609 69.1049 86.0809 70.8822C86.0843 72.6686 86.0884 74.5376 86.0926 76.4842C86.0993 80.379 86.1059 84.5865 86.1135 89.0759C86.1135 91.3219 86.1143 93.6387 86.1143 96.0215C86.0693 98.425 85.4738 100.913 84.2069 103.123C83.5848 104.234 82.79 105.258 81.8917 106.202C80.9535 107.1 79.9477 107.975 78.7726 108.617C77.6183 109.281 76.3682 109.827 75.0396 110.144C74.3849 110.344 73.7002 110.417 73.0196 110.526C72.3358 110.58 71.6344 110.626 70.9497 110.625L71.1173 110.527C69.0006 114.284 66.7388 118.3 64.4136 122.428L64.2435 122.731L64.0642 122.433C61.7932 118.673 59.3654 114.651 56.8834 110.541L57.0627 110.643C46.1357 110.646 34.4338 110.648 22.3642 110.651C20.0148 110.648 17.6796 110.645 15.3594 110.642C13.0058 110.607 10.6823 110.011 8.62485 108.938C4.51406 106.768 1.58088 102.648 0.933701 98.1882L0.808599 97.3559L0.766063 96.5177C0.726865 95.9564 0.731868 95.4076 0.733536 94.8597C0.73437 93.7622 0.734369 92.6704 0.735203 91.5837C0.736037 89.4103 0.736876 87.257 0.738544 85.1269C0.741046 80.866 0.743544 76.696 0.746046 72.6261C0.74688 71.6086 0.747719 70.5978 0.748553 69.5928C0.738545 68.5937 0.756891 67.5821 0.855303 66.5804C1.08382 64.5838 1.72767 62.6665 2.69844 60.9734C4.63499 57.5699 7.88008 55.1229 11.3987 54.1146C11.8441 54.0087 12.2811 53.8703 12.7273 53.7927C13.176 53.7268 13.623 53.6601 14.0684 53.5951C14.9691 53.54 15.8573 53.5075 16.7272 53.5242C18.4727 53.5267 20.1866 53.5283 21.8663 53.5308C25.2256 53.5358 28.4499 53.54 31.5273 53.545C43.8297 53.5742 53.7868 53.5975 60.6823 53.6142C64.1159 53.6317 66.7847 53.6459 68.6086 53.6551C69.506 53.6643 70.1932 53.6718 70.6703 53.6768C71.1365 53.6826 71.3742 53.6976 71.3742 53.6976C71.3742 53.6976 71.1365 53.7126 70.672 53.7201C70.1957 53.7251 69.5077 53.7327 68.6103 53.7418C66.7855 53.751 64.1175 53.7652 60.684 53.7827C53.7884 53.7994 43.8313 53.8227 31.529 53.8519C28.4515 53.8561 25.2273 53.8611 21.8679 53.8661C20.1883 53.8686 18.4744 53.8703 16.7288 53.8728C16.2926 53.8753 15.8548 53.8778 15.4144 53.8803C14.9799 53.9028 14.5429 53.9253 14.1042 53.9478C13.6697 54.0129 13.2335 54.0788 12.7957 54.1438C12.3595 54.2205 11.9342 54.3565 11.4996 54.4607C8.0694 55.4515 4.91105 57.8443 3.03038 61.1628C2.08712 62.8132 1.46412 64.6814 1.24394 66.6255C1.15054 67.5962 1.13303 68.5837 1.14387 69.5928C1.1447 70.597 1.14553 71.6086 1.14637 72.6261C1.14887 76.696 1.15137 80.866 1.15388 85.1269C1.15471 87.257 1.15554 89.4095 1.15638 91.5837C1.15721 92.6704 1.15721 93.763 1.15804 94.8597C1.15638 95.4085 1.15221 95.9597 1.19141 96.4993L1.23227 97.3142L1.35487 98.1223C1.98537 102.452 4.83598 106.451 8.82751 108.556C10.8258 109.597 13.0792 110.175 15.3652 110.209C17.6838 110.212 20.0173 110.214 22.365 110.218C34.4338 110.22 46.1365 110.223 57.0636 110.225H57.182L57.2429 110.327C59.7207 114.44 62.1443 118.464 64.4111 122.227L64.0608 122.232C66.3919 118.107 68.6595 114.095 70.782 110.34L70.8379 110.242L70.9505 110.243C71.6402 110.245 72.3074 110.2 72.9788 110.15C73.6418 110.044 74.309 109.975 74.947 109.782C76.2422 109.476 77.4607 108.945 78.5874 108.3C79.735 107.677 80.7166 106.825 81.634 105.951C82.5114 105.031 83.2895 104.035 83.8992 102.951C85.141 100.797 85.7273 98.3708 85.7782 96.0215C85.784 93.6395 85.7907 91.3235 85.7965 89.0792C85.804 84.5898 85.8107 80.3823 85.8174 76.4875C85.8215 74.541 85.8257 72.672 85.8291 70.8855C85.8174 69.0983 85.9208 67.3877 85.6147 65.809C85.3353 64.2302 84.8391 62.7741 84.1677 61.5072C83.4755 60.2554 82.6965 59.147 81.82 58.2504C80.0953 56.4231 78.1721 55.3706 76.5733 54.7351C75.771 54.4015 75.0229 54.2314 74.3832 54.0612C73.7327 53.9462 73.1814 53.8503 72.7361 53.7994C72.2957 53.7702 71.9588 53.7485 71.7195 53.7327C71.4901 53.7135 71.3742 53.6976 71.3742 53.6976Z" fill="#263238"/>
<path d="M74.2698 68.6788C74.2698 68.7989 60.4579 68.8956 43.4252 68.8956C26.3857 68.8956 12.5772 68.798 12.5772 68.6788C12.5772 68.5595 26.3857 68.4619 43.4252 68.4619C60.4588 68.4611 74.2698 68.5587 74.2698 68.6788Z" fill="#263238"/>
<path d="M74.2698 75.3716C74.2698 75.4917 60.4579 75.5885 43.4252 75.5885C26.3857 75.5885 12.5772 75.4909 12.5772 75.3716C12.5772 75.2524 26.3857 75.1548 43.4252 75.1548C60.4588 75.1548 74.2698 75.2515 74.2698 75.3716Z" fill="#263238"/>
<path d="M74.2698 82.0653C74.2698 82.1854 60.4579 82.2822 43.4252 82.2822C26.3857 82.2822 12.5772 82.1846 12.5772 82.0653C12.5772 81.9461 26.3857 81.8485 43.4252 81.8485C60.4588 81.8477 74.2698 81.9452 74.2698 82.0653Z" fill="#263238"/>
<path d="M74.2698 88.7582C74.2698 88.8783 60.4579 88.975 43.4252 88.975C26.3857 88.975 12.5772 88.8774 12.5772 88.7582C12.5772 88.6389 26.3857 88.5413 43.4252 88.5413C60.4588 88.5413 74.2698 88.6389 74.2698 88.7582Z" fill="#263238"/>
<path d="M74.2698 95.4518C74.2698 95.5719 60.4579 95.6687 43.4252 95.6687C26.3857 95.6687 12.5772 95.5711 12.5772 95.4518C12.5772 95.3317 26.3857 95.235 43.4252 95.235C60.4588 95.235 74.2698 95.3317 74.2698 95.4518Z" fill="#263238"/>
<path d="M114.892 0.477585H51.8636C45.7937 0.477585 40.874 5.39819 40.874 11.4672V33.6341C40.874 39.7039 45.7946 44.6237 51.8636 44.6237H96.9905L104.165 56.5199L110.877 44.6237H114.891C120.961 44.6237 125.881 39.7031 125.881 33.6341V11.4672C125.883 5.39819 120.962 0.477585 114.892 0.477585Z" fill="white"/>
<path d="M114.892 0.477582C114.892 0.477582 115.269 0.476752 116.003 0.505108C116.725 0.605188 117.827 0.720278 119.149 1.27405C120.469 1.80281 121.996 2.77442 123.361 4.34067C124.02 5.13881 124.637 6.07873 125.114 7.1721C125.573 8.27131 125.882 9.51648 125.959 10.8517C126.037 16.1651 126.007 22.6036 126.034 30.0087C126.035 30.9344 126.037 31.8743 126.039 32.8293C126.053 33.7767 126.017 34.7758 125.836 35.755C125.449 37.7073 124.539 39.6397 123.095 41.1826C122.385 41.9616 121.557 42.6571 120.621 43.2034C119.696 43.763 118.677 44.205 117.596 44.4586C117.064 44.6195 116.504 44.6687 115.95 44.7505C115.389 44.7797 114.823 44.8164 114.268 44.8055C113.15 44.8064 112.021 44.808 110.879 44.8089L111.04 44.7146C108.918 48.4835 106.667 52.4808 104.339 56.6166L104.173 56.9119L103.998 56.6216C101.723 52.8561 99.3023 48.8471 96.8153 44.7305L96.9921 44.8305C85.0901 44.8339 72.1414 44.8372 58.7032 44.8405C56.519 44.8405 54.3472 44.8405 52.1905 44.8405C50.0079 44.8781 47.792 44.3118 45.9622 43.1459C44.1174 42.0091 42.6295 40.3253 41.7321 38.3904C40.7622 36.4747 40.5996 34.2546 40.663 32.223C40.6646 28.1038 40.6663 24.0573 40.668 20.0941C40.6688 18.1125 40.6705 16.1518 40.6713 14.2136C40.6746 13.2436 40.6771 12.2795 40.6805 11.3204C40.7138 10.3471 40.8197 9.37553 41.0983 8.45063C41.5929 6.58247 42.642 4.9203 43.9406 3.57423C45.2792 2.26151 46.9096 1.27573 48.6602 0.757812C49.5392 0.520122 50.4324 0.331633 51.3323 0.314953C52.2322 0.262411 53.0971 0.301609 53.9703 0.290767C55.71 0.292435 57.4213 0.294106 59.1044 0.296608C65.8356 0.305782 72.1064 0.314954 77.8327 0.323294C89.2743 0.352484 98.535 0.375837 104.951 0.392517C108.144 0.410031 110.625 0.424212 112.324 0.433386C113.158 0.44256 113.796 0.45006 114.241 0.455064C114.671 0.46257 114.892 0.477582 114.892 0.477582C114.892 0.477582 114.671 0.492595 114.239 0.500101C113.795 0.505105 113.156 0.512612 112.322 0.521786C110.623 0.53096 108.142 0.545141 104.949 0.562655C98.5334 0.579335 89.2727 0.602687 77.831 0.631877C72.1048 0.640217 65.8339 0.648555 59.1027 0.658563C57.4197 0.660231 55.7075 0.661902 53.9686 0.664404C52.2239 0.66774 50.4616 0.594343 48.7686 1.1256C47.0798 1.62934 45.5077 2.58427 44.2175 3.85278C42.9673 5.15466 41.9565 6.75927 41.4836 8.56071C40.9465 10.3488 41.1008 12.2728 41.0791 14.2152C41.08 16.1534 41.0816 18.1142 41.0825 20.0958C41.0841 24.0589 41.0858 28.1055 41.0875 32.2246C41.0941 33.2596 41.0541 34.2863 41.2284 35.2871C41.3685 36.2962 41.6796 37.2828 42.1191 38.2094C42.9831 40.0701 44.4143 41.6889 46.189 42.7806C47.9546 43.9006 50.0646 44.4436 52.1897 44.4085C54.3472 44.4085 56.5181 44.4085 58.7024 44.4085C72.1406 44.4119 85.0893 44.4152 96.9913 44.4185H97.1081L97.1681 44.5186C99.6493 48.6386 102.065 52.6509 104.335 56.419L103.994 56.424C106.33 52.2923 108.588 48.2991 110.716 44.5345L110.77 44.4402H110.878C112.02 44.4411 113.15 44.4427 114.267 44.4436C114.83 44.4561 115.373 44.4202 115.916 44.3935C116.452 44.3151 116.995 44.2701 117.509 44.115C118.557 43.8731 119.544 43.4469 120.442 42.9065C121.35 42.3811 122.155 41.708 122.845 40.9541C124.251 39.4612 125.139 37.5898 125.521 35.6949C125.699 34.7375 125.738 33.7909 125.727 32.8293C125.728 31.8743 125.73 30.9336 125.732 30.0087C125.731 22.6086 125.79 16.1534 125.744 10.8634C125.676 9.55234 125.381 8.32886 124.938 7.2455C124.477 6.16797 123.878 5.23889 123.234 4.44742C121.903 2.89368 120.406 1.9179 119.106 1.3783C116.464 0.31829 114.871 0.564318 114.892 0.477582Z" fill="#263238"/>
<path d="M115.993 16.0167C115.993 16.1368 102.181 16.2335 85.1477 16.2335C68.1082 16.2335 54.2997 16.1359 54.2997 16.0167C54.2997 15.8966 68.1082 15.7998 85.1477 15.7998C102.182 15.7998 115.993 15.8966 115.993 16.0167Z" fill="#263238"/>
<path d="M115.993 22.7095C115.993 22.8296 102.181 22.9264 85.1477 22.9264C68.1082 22.9264 54.2997 22.8296 54.2997 22.7095C54.2997 22.5894 68.1082 22.4927 85.1477 22.4927C102.182 22.4927 115.993 22.5903 115.993 22.7095Z" fill="#263238"/>
<path d="M115.993 29.4032C115.993 29.5233 102.181 29.62 85.1477 29.62C68.1082 29.62 54.2997 29.5225 54.2997 29.4032C54.2997 29.284 68.1082 29.1864 85.1477 29.1864C102.182 29.1864 115.993 29.2831 115.993 29.4032Z" fill="#263238"/>
</svg>
